<svg xmlns="http://www.w3.org/2000/svg" viewBox="0 0 865.6 865.6"><defs><style>.cls-1,.cls-2,.cls-3{fill:none;}.cls-1,.cls-2,.cls-3,.cls-5{stroke:#fff;stroke-miterlimit:10;}.cls-1{stroke-width:40px;}.cls-2{stroke-width:5px;}.cls-3,.cls-5{stroke-width:2px;}.cls-4,.cls-5{fill:#fff;}</style></defs><g id="Layer_2" data-name="Layer 2"><circle class="cls-1" cx="432.8" cy="432.8" r="412.8"/></g><g id="Layer_3" data-name="Layer 3"><path class="cls-2" d="M802.16,611.35s18.07,62.63,101.17,0,60.27-53,60.27-53" transform="translate(-497.29 -106.74)"/><path class="cls-2" d="M782.49,561.83s8.56-3.75,11.77-9.1,7.9,5.09,7.9,5.09l4.42-6.62s5.35-2.14,9.63,5.32,31,7.45,31,7.45" transform="translate(-497.29 -106.74)"/><path class="cls-2" d="M790.52,567.19s6.42,4.81,24.35,3.21S826.38,569,826.38,569" transform="translate(-497.29 -106.74)"/><path class="cls-2" d="M790.52,575.21s8,7.5,24.35,7.5,26.5-12,26.5-12" transform="translate(-497.29 -106.74)"/><path class="cls-2" d="M785.7,526s2.14,15.29,18.74,17.28" transform="translate(-497.29 -106.74)"/><path class="cls-2" d="M814.87,537.74s17.94-2.37,16.33,5.51-3.7,5.2-3.7,5.2" transform="translate(-497.29 -106.74)"/><path class="cls-2" d="M841.37,537.41s6.8-25.9-18.28-15.19" transform="translate(-497.29 -106.74)"/><path class="cls-2" d="M804.44,507.77s-5.69-46,26.86-68S912,444.6,912,444.6l12.32,9.1" transform="translate(-497.29 -106.74)"/><path class="cls-2" d="M832.65,464.94S847.8,438.17,889,454.77" transform="translate(-497.29 -106.74)"/><path class="cls-2" d="M842.21,473s24.56,4.2,42.11-3.52-32.24-4.51-32.24-4.51l-9.87,4.25" transform="translate(-497.29 -106.74)"/><path class="cls-2" d="M760.54,457.14s7,11.83,25.16,7.14" transform="translate(-497.29 -106.74)"/><path class="cls-2" d="M746.09,431.14s24.29-15.87,44.43,9.12,0,33.85,0,33.85,12.84-14.52,0-27.91-30,0-30,0" transform="translate(-497.29 -106.74)"/><path class="cls-2" d="M999.82,488.49s9.64,17.13-2.67,19.28-10.71-9.64-10.71-9.64-9.63-2.42-12.31.13-6.42,9-4.82,14.86,2.13,14.45,16.86,12.85,49-25.16,39.89-39.62-27.81-12.24-27.81-12.24" transform="translate(-497.29 -106.74)"/><path class="cls-2" d="M987.51,514.19c6.65-2.62,16.45,4.69,21.42,11.78,12.33,17.61,4.83,48-10.68,56.74-22,12.31-20.91-34.26-20.91-34.26A50.72,50.72,0,0,1,979.86,526C981.78,520.55,983.48,515.78,987.51,514.19Z" transform="translate(-497.29 -106.74)"/><path class="cls-2" d="M728.32,391.23s11.78,18.2,21.95,0" transform="translate(-497.29 -106.74)"/><path class="cls-2" d="M728.32,374.1s-3.55,20.88,17.77,11.25" transform="translate(-497.29 -106.74)"/><path class="cls-3" d="M728.32,355.37" transform="translate(-497.29 -106.74)"/><path class="cls-4" d="M726.89,355.12l1.85,10c.56,3,1.2,6,4,7.69,5.58,3.36,12-1.27,12.93-7.06l-5.78-1.59c-.76,5.55-.62,12.23,5.55,14.57,4.54,1.73,13.08.53,14-5.31a3,3,0,0,0-5.79-1.6c-1.59,3.81,2.32,7.55,5.94,7.71,3.91.17,6.58-3.12,8.56-6a3,3,0,1,0-5.18-3,8.61,8.61,0,0,1-2.9,3c-.4.1-.46.12-.17.06-.37,0-.42,0-.14,0-.43-.29,0,.07-.45-.22.19.15.16.11-.11-.13.16.21.15.17,0-.12a.65.65,0,0,1,.16.42c0,.33,0,.31.12-.05l-5.79-1.6a2.94,2.94,0,0,1-.12.59c.13-.28.1-.26-.06.05,0-.18.07,0-.18.12a5.54,5.54,0,0,1-.53.3c.24-.08.19-.06-.16.06a7.45,7.45,0,0,1-.92.27,8.16,8.16,0,0,1-2.27.19,5.27,5.27,0,0,1-2.24-.39,2.08,2.08,0,0,1-1.07-1,1.78,1.78,0,0,1-.33-.74,7.3,7.3,0,0,1-.27-1.12c0-.12,0-.29-.05-.72a13.08,13.08,0,0,1,0-1.4c0-.46.05-.93.09-1.39,0-.14.13-1.2.09-.91a3.1,3.1,0,0,0-2.09-3.69,3,3,0,0,0-3.69,2.1c-.27,1.6-.85,3-2.3,3.65.47-.2-1,.14-.37.08a4.85,4.85,0,0,1-.66,0l-.17,0a5,5,0,0,1-.62-.2c.24.08.19,0-.14-.12.19.09-.13-.14-.17-.19a6.53,6.53,0,0,1-.7-2.41c-.24-1.27-.47-2.53-.7-3.8l-1.41-7.59a3,3,0,0,0-3.69-2.09,3.07,3.07,0,0,0-2.1,3.69Z" transform="translate(-497.29 -106.74)"/><path class="cls-4" d="M737,336.78c-1.8,2.75-3.43,5.6-3.76,8.94a9.59,9.59,0,0,0,2.76,7.69,7.6,7.6,0,0,0,8.51,1.31c2.71-1.22,4.62-3.75,6.22-6.16l-5.48-2.32c-1.62,5.71-1.91,12.47,3.58,16.21a7.72,7.72,0,0,0,7.92.39,7,7,0,0,0,3.86-6.68,3.07,3.07,0,0,0-1.84-2.74,3,3,0,0,0-3.28.62c-4.71,4.76-1.54,12.93,4.34,15,3.36,1.16,7-.07,9.67-2.27a13.33,13.33,0,0,0,4.57-9.11l-5.89.8a8.67,8.67,0,0,0,5.9,5.32,11.33,11.33,0,0,0,8.06-.92c5.62-2.94,7-10.15,6.54-15.91a3.08,3.08,0,0,0-3-3,3,3,0,0,0-3,3c.23,5.71,6.57,9.31,11.81,7.51,5.88-2,7.78-8.84,6.76-14.41l-5.49,2.31c1.49,1.95,3,3.85,5.39,4.73a6.71,6.71,0,0,0,5.88-.61c2.28-1.51,2.52-3.95,2.55-6.46l.07-7.59-5.9.8c1.22,4.78,7,5.87,10.92,3.9,4.81-2.4,5.23-8.61,4.85-13.3a3.08,3.08,0,0,0-3-3,3,3,0,0,0-3,3,21.5,21.5,0,0,1,0,4.67,7.68,7.68,0,0,1-.55,2,4.63,4.63,0,0,1-.47.81c-.09.1-.66.61-.2.25a4.48,4.48,0,0,1-.7.42c.53-.26-.17,0-.31.07l-.54.12c.3,0,.34-.05.12,0s-1.09-.06-.41.05a6.49,6.49,0,0,1-.76-.19c.56.16,0,0-.19-.13.55.39-.06,0-.13-.17.23.29.25.28.07,0,.14.33.15.32,0,0-.84-3.3-5.86-2.57-5.89.8,0,.85-.3,9.33-.14,9.36,0,0,.15-.24.17-.27.24-.27.26,0-.06,0,.42.05-.14,0-.3,0h0l-.3-.08a4.73,4.73,0,0,0-.57-.37c.11.08-.36-.36-.39-.4a13,13,0,0,1-1.14-1.32,3,3,0,0,0-5.48,2.31c.46,2.5-.27,5.94-2.74,7.11.45-.22-.54.13-.67.16.56-.12-.54,0-.67,0-.71,0,.31.15-.38-.05-.1,0-1.15-.37-.67-.16a5.58,5.58,0,0,1-1-.57c.43.3-.36-.38-.44-.48.46.56-.33-.8-.06-.09a3.68,3.68,0,0,1-.16-.54c0,.33,0,.31,0-.06h-6a18,18,0,0,1-.34,6,8.51,8.51,0,0,1-1.07,2.62,5.18,5.18,0,0,1-.71,1c-.17.18-.34.35-.52.51-.37.36.07,0-.18.16a3.72,3.72,0,0,1-1.79.78c-.07,0-.82.15-.46.1s-.27,0-.33,0a8,8,0,0,1-1.29,0c.56.07-.56-.18-.71-.23-.44-.12.35.2,0,0l-.48-.26c-.2-.11-.47-.36-.16-.08-.13-.12-.26-.24-.38-.37-.39-.39.1.12-.11-.14-.07-.08-.33-.64-.14-.16a3,3,0,0,0-5.89.8,7.54,7.54,0,0,1-2.42,4.53,5.18,5.18,0,0,1-1.91,1.1,2.82,2.82,0,0,1-1,.18s-.92-.06-.58,0-.44-.12-.43-.12c-.22-.06-.35-.13-.06,0A6.14,6.14,0,0,1,761,363s-.48-.35-.26-.18-.29-.28-.34-.33a5.14,5.14,0,0,1-.38-.42c.31.38-.07-.11-.12-.19s-.24-.41-.35-.62-.16-.35-.05-.06a6.61,6.61,0,0,1-.36-1.34c.11.74.06-.81,0-.42s.36-1,.07-.4c.07-.16.17-.31.26-.47-.26.45.13-.14.23-.24l-5.12-2.13a3.39,3.39,0,0,1,0,.64c.05-.24,0-.25,0,0,0,0-.16.33,0,.18s-.63.6-.35.38c0,0-.84.46-.44.3a4.16,4.16,0,0,1-.63.17c.27,0,.21,0-.16,0,.46,0-.45-.1-.53-.12a4.67,4.67,0,0,1-1.11-.83,5.29,5.29,0,0,1-1.28-3.35,17.75,17.75,0,0,1,.9-5.64c1-3.37-3.64-5.08-5.48-2.31a10.92,10.92,0,0,1-3.45,3.71,1.52,1.52,0,0,1-2.29-.54c.18.24-.33-.63-.39-.75.11.25-.18-.71-.2-.85.07.4,0-.5,0-.52a5,5,0,0,1,.11-1.09,17.13,17.13,0,0,1,2.88-5.68,3,3,0,1,0-5.18-3Z" transform="translate(-497.29 -106.74)"/><path class="cls-4" d="M1023.3,500.44c.28,16.27,8.19,32.07,20.61,42.5a55.31,55.31,0,0,0,22.4,11.51,108.52,108.52,0,0,0,15.74,2.37c4.2.39,9.28.28,12.86,2.86a7.6,7.6,0,0,1,1.87,2,6.12,6.12,0,0,1,.87,2.2,4,4,0,0,1-.05,1.16c0,.21-.11.41-.17.62s.15-.23-.1.22l-.28.5c-.42.7.34-.32-.21.28a5,5,0,0,1-.39.41s-.6.51-.34.31a14.69,14.69,0,0,1-1.84,1,18.47,18.47,0,0,1-2.74.74l-.64.11-.32,0c.21,0,.2,0,0,0-.49,0-1,.1-1.46.13-1.06.07-2.12.08-3.19.06a3,3,0,0,0-2.59,1.49c-1.57,2.64-.2,5.23,1.77,7.14a22.53,22.53,0,0,1,2.19,2.18c-.47-.58-.08-.07,0,.09s0-.18,0-.2c0-.27,0-.28,0,0a1,1,0,0,1,.16-.65l.11-.12a4.58,4.58,0,0,1-.46.42c.39-.34-1.19.93-.76.59a7,7,0,0,0-.71.62,5.24,5.24,0,0,0-1.5,3.24c-.16,1.89,1,3.55,1.41,5,.17.56.06-.18.09.45a5,5,0,0,1,0,.95c.07-.5-.12.36-.15.45a1.86,1.86,0,0,1-.32.75,3.29,3.29,0,0,1-2.08,1.71,3.06,3.06,0,0,0-2.2,2.89c-.06,2.75,1.7,4.66,3.83,6.12.81.55,1.67,1,2.48,1.58l.43.31c-.52-.39.13.13.19.19a4.34,4.34,0,0,1,.51.54c-.42-.54,0,.09.07.2-.16-.55-.24.1,0-.22v.3c.07-.32.07-.3,0,0-.23.58-.07.18,0,.08s-.54.77-.22.38a9.26,9.26,0,0,1-2.87,2.18,35.78,35.78,0,0,0-6.27,4.31,29.26,29.26,0,0,0-8.22,28.45,34.47,34.47,0,0,0,3.21,7.31,3.6,3.6,0,0,1,.46,1.62c0-.34,0,.1-.08.19.15-.41-.28.47-.27.46a5.59,5.59,0,0,1-2.47,1.56c-3.14,1-6.43.88-9.43,2.42a13.51,13.51,0,0,0-5.68,6c-2.55,5.16-2.49,10.78-2.74,16.4-.22,5.09-1.12,10.37-5.9,12.88s-10.74,1.66-16.1,1.14c-6.69-.66-13.51-.69-19.34,3.16-4.88,3.22-8.34,8-12.46,12-3.38,3.34-7.91,5.93-12.61,5.51-1-.08.51.14-.44-.07l-.61-.14a3.86,3.86,0,0,1-1.29-.51,6.67,6.67,0,0,1-2.14-2,13.24,13.24,0,0,0-3.46-3.46,11,11,0,0,0-4.86-1.49c-6.74-.59-11.69,4.4-16.73,8s-10.49,6.62-16.7,6.51a14.12,14.12,0,0,1-7.55-2.18,17.68,17.68,0,0,1-5.27-6.06,123.38,123.38,0,0,1-7.54-16.4c-2.31-5.75-4.46-11.56-6.69-17.33-4.44-11.5-9.2-23-16.18-33.26a89.57,89.57,0,0,0-5.63-7.4,3,3,0,0,0-4.24,0,3.06,3.06,0,0,0,0,4.24c16.17,19.2,21.55,44.71,32,67,2.67,5.72,5.77,11.86,11.57,15s13.07,3,19.18.64a43.16,43.16,0,0,0,9-4.83c2.7-1.86,5.16-4.06,7.91-5.84,2.23-1.46,4.82-2.55,7.12-2.05,2.5.54,3.32,3.05,5.4,4.78,4.65,3.86,10.94,3.26,16.17,1,5.41-2.35,9.11-6.79,13-11a34.94,34.94,0,0,1,6.05-5.51,16.18,16.18,0,0,1,8.18-2.69c6.36-.37,12.66,1.4,19,.7,6-.67,12-3.24,14.74-9s2.1-11.84,2.61-17.9c.38-4.45,1.75-9.79,6.41-11.13,3.18-.92,6.52-.81,9.45-2.54s4.91-4.58,4.48-8a13.38,13.38,0,0,0-1.94-4.8,16.51,16.51,0,0,1-1.4-3,19.28,19.28,0,0,1-1.17-6.82,23.57,23.57,0,0,1,3.9-13.27,20.91,20.91,0,0,1,4.72-5.11c1.63-1.26,4.51-2.6,6.45-4.13,2.39-1.88,4-4.66,3.23-7.78-.64-2.44-2.66-4-4.69-5.3-.42-.26-.84-.52-1.25-.79l-.65-.43c-.68-.44.26.25-.09-.06-.15-.13-.29-.29-.44-.41-.49-.37.15.44-.09-.1-.31-.69.2.63,0-.09s0,.62,0-.13l-2.2,2.9a9.71,9.71,0,0,0,6.8-7.59,9.29,9.29,0,0,0-.64-5.43,8.26,8.26,0,0,0-.66-1.45c-.15-.2,0-.41-.07-.32a.8.8,0,0,1-.22.64c.11-.11.22-.22.34-.32s.16-.14,0,0c.29-.22.58-.44.86-.67,2.89-2.31,2.64-5.77.38-8.38-.73-.84-1.6-1.53-2.38-2.33l-.45-.49c.54.56,0,0-.11-.21l.16.38c-.08-.31-.08-.22,0,.3,0-.32,0-.23,0,.28-.2.43-.22.49-.06.2l-2.59,1.48a26.37,26.37,0,0,0,11.66-2,10.08,10.08,0,0,0,6.07-9.74c-.45-5.23-4.39-9.07-9.1-10.89s-10.11-1.72-15.08-2.24c-9.31-1-18.1-3-26-8a52.65,52.65,0,0,1-16.55-16.82,49.87,49.87,0,0,1-7.63-25.31c-.06-3.86-6.06-3.87-6,0Z" transform="translate(-497.29 -106.74)"/><path class="cls-4" d="M768.2,289.26c-.56-.81-.21.26-.16-.24a2.37,2.37,0,0,1,.11-.5,6.13,6.13,0,0,1,.76-1.54,28.33,28.33,0,0,1,2.11-3.11,35.8,35.8,0,0,1,5.71-5.7,52.15,52.15,0,0,1,13.86-7.7c10.95-4.25,22.85-6.46,34.52-7.49,24.62-2.18,49.4,1.47,72.85,9,23.65,7.59,45.89,19.09,66.34,33.12A305.87,305.87,0,0,1,1019,353.27a302.64,302.64,0,0,1,22.59,28.51c7.07,10.12,14.43,20.79,18.39,32.58a51.21,51.21,0,0,1,2.22,9.06c.1.74.17,1.49.23,2.23a10.27,10.27,0,0,0,.09,2s.4-.19.26-.29-.36.14-.52.12c-.5-.05-1,0-1.54,0-4.88-.7-8.27-6-10.81-9.76q-10.9-16-22.71-31.35c-15.53-20.09-32.51-39.16-51.63-55.93-18.88-16.56-39.81-30.86-62.66-41.38-22.69-10.44-47.07-17.22-72.07-18.58-13.34-.72-27.18-.11-39.88,4.44a79.28,79.28,0,0,0-17.13,8.68c-2.71,1.81-5.31,3.76-7.84,5.81-2.2,1.78-4.47,3.9-7.27,4.65-1.61.44-4,.32-4.92-.94a2.63,2.63,0,0,1-.36-1.7,1.68,1.68,0,0,1,.33-.84c0,.08.34-.2.27-.18,3.65-1.2,2.08-7-1.6-5.78-6,2-6.52,10.16-1.72,13.74,5.55,4.13,12.34,1,17.07-2.73a108,108,0,0,1,16.32-11.17,68.4,68.4,0,0,1,18.71-6.56c13.26-2.62,27.26-2,40.6-.27a187,187,0,0,1,37.25,8.9c24.35,8.4,47.14,21.38,67.42,37.19,20.95,16.34,39.51,35.54,56.29,56.09,8.35,10.22,16.25,20.79,23.86,31.57,3.59,5.1,6.86,10.6,11,15.32,3.67,4.23,9.67,8.46,15.56,6.34,4-1.43,3.94-5.4,3.53-8.94a55.38,55.38,0,0,0-2-9.8,88.49,88.49,0,0,0-8.38-18.36,278.7,278.7,0,0,0-22-31.87,310.62,310.62,0,0,0-54.11-53.62,277.9,277.9,0,0,0-67.24-38.87c-24-9.54-49.73-15.3-75.61-15.2a160.38,160.38,0,0,0-38.53,4.77c-11.21,2.84-22.72,7.31-31,15.67a37.78,37.78,0,0,0-5.24,6.58c-1.64,2.63-3,6.06-1.07,8.92a3.08,3.08,0,0,0,4.11,1.08,3,3,0,0,0,1.08-4.11Z" transform="translate(-497.29 -106.74)"/><path class="cls-4" d="M769.32,296.32c-3.78,3.38-3,9.85.72,13,4.49,3.72,11.12,2.22,15-1.7l-5-1.32a4.06,4.06,0,0,1,.21,2.48,24,24,0,0,0-.3,3.05,6.36,6.36,0,0,0,4.45,6.21c2.48.8,5.52.34,8-.18a25,25,0,0,0,7.79-3.13l-4.51-2.59a10.13,10.13,0,0,1-1.12,3.28,9.85,9.85,0,0,0-1,4.61c.28,3.7,3.25,6.4,6.68,7.37a22.26,22.26,0,0,0,9.51.3,8.5,8.5,0,0,0,6.77-5.23c.61-1.5-.67-3.3-2.1-3.69a3.08,3.08,0,0,0-3.69,2.1c.12-.3,0,0-.1.09.29-.37-.11.1-.19.16-.38.29.34-.2-.08.06a5.25,5.25,0,0,1-.66.36c.33-.15-.58.16-.76.2a7.94,7.94,0,0,1-1,.18,15.12,15.12,0,0,1-6.56-.45,3.69,3.69,0,0,1-1.54-1c-.53-.7-.41-.93-.17-1.71.65-2.12,2-4.14,2-6.6a3,3,0,0,0-4.51-2.59,19.81,19.81,0,0,1-5.72,2.38,13.36,13.36,0,0,1-5.13.41c-.14,0-.75-.23-.34-.1.12.21.1.16-.08-.14.12.25.13.2,0-.14.06.54,0-.45,0-.46,0-.45.06-.89.11-1.34.22-1.83.48-3.7-.24-5.46-.82-2-3.29-3.09-5-1.32s-4.79,2.93-6.84,1.4c.41.3-.2-.23-.28-.31-.23-.26-.25-.29-.08-.08-.11-.17-.21-.33-.31-.51-.42-.71.09.42-.18-.37,0-.11-.29-1.22-.21-.64a8.43,8.43,0,0,1,0-.87c0-.36,0-.38,0,0a3.41,3.41,0,0,1,.14-.55c.16-.55-.21.18.15-.32.19-.29.21-.31,0-.07a3.92,3.92,0,0,1,.42-.4,3,3,0,1,0-4.24-4.25Z" transform="translate(-497.29 -106.74)"/><path class="cls-4" d="M761.08,305.15a23.55,23.55,0,0,0-2.33,6.87c-.39,2.4-.73,5.18.47,7.42s3.67,3.5,5.91,4.42a18.45,18.45,0,0,0,6.52,1.36c.57,0,1.12,0,1.69,0a7,7,0,0,1,.8-.05,1.61,1.61,0,0,1-1.14-1c0-.31-.06-.27,0,.11s-.05.44,0,.27c0,.19-.15,1-.19,1.41a6.89,6.89,0,0,0,2.41,5.87c4.07,3.5,9.08,2,13.5.09l-3.64-.46c-.32-1.16-.47-1.39-.44-.69,0,.17,0,.33-.05.5a7,7,0,0,0,0,1.21,7.7,7.7,0,0,0,.85,2.81,9.15,9.15,0,0,0,3.84,3.78c3.83,2,8.09,1.22,12.09.22,3.74-.93,2.16-6.72-1.6-5.78-2.56.64-5.85,1.59-8.09,0l-.71-.66s-.41-.73-.32-.51c-.18-.43-.1-.07-.12-.56-.07-1.76.16-3.19-1.24-4.58a3.15,3.15,0,0,0-3.64-.47,11.84,11.84,0,0,1-4.81,1.28,2.4,2.4,0,0,1-2.17-1.35c.14.35,0,.25.05-.05a5.88,5.88,0,0,0,.06-.71,9.19,9.19,0,0,0,.08-3.05,4.64,4.64,0,0,0-4.7-3.68,20.57,20.57,0,0,1-5-.25,10.26,10.26,0,0,1-4.24-1.9,1.27,1.27,0,0,1-.48-1.14,11.81,11.81,0,0,1,.21-2.65,17.56,17.56,0,0,1,1.65-5,3.08,3.08,0,0,0-1.08-4.11,3,3,0,0,0-4.1,1.08Z" transform="translate(-497.29 -106.74)"/><path class="cls-4" d="M747.5,317.71a11.56,11.56,0,0,0,0,13,11.72,11.72,0,0,0,12.31,4.43l-3.69-3.69a21.71,21.71,0,0,0-.95,7.59c.26,3,2.25,4.59,5,5.17a16.32,16.32,0,0,0,13.12-2.82l-3.63-4.71c-3.21,4.14-3.3,10.48.85,14.13a10.45,10.45,0,0,0,14.15-.58c2.68-2.78-1.55-7-4.24-4.24a3.75,3.75,0,0,1-1.52,1.06c.36-.14-.45.12-.53.14s-.43.1-.65.13c.25,0,.19,0-.19,0a6.51,6.51,0,0,1-1,0c.44.05-.42-.1-.51-.13a2.14,2.14,0,0,1-.8-.31c-.07,0-.74-.5-.48-.29a3,3,0,0,1-1-1.33,2.7,2.7,0,0,1-.25-.66s-.21-.92-.15-.5a7.46,7.46,0,0,1,0-1.16,4,4,0,0,1,0-.49q0,.38.06-.18A4.08,4.08,0,0,1,774,341a3.06,3.06,0,0,0,.23-3.94c-.84-1-2.66-1.69-3.87-.77a10.88,10.88,0,0,1-7.76,2.33c-.47-.05-1.14-.34-1.68-.35-.33-.1-.42-.13-.25-.07a.7.7,0,0,1,.43.41c.21.08,0,.53.09-.21s0-1.68.14-2.5a19.83,19.83,0,0,1,.62-2.77,3,3,0,0,0-3.69-3.7,5.4,5.4,0,0,1-5.58-8.65,3,3,0,0,0-1.08-4.1,3.05,3.05,0,0,0-4.1,1.07Z" transform="translate(-497.29 -106.74)"/><path class="cls-4" d="M788.87,289.72A10.43,10.43,0,0,0,792,300.31a10.54,10.54,0,0,0,11.29,1.43l-4.4-1.8c.16.47,0,.74-.15,1.28a12,12,0,0,0-.31,2,9.23,9.23,0,0,0,.52,3.61,10.25,10.25,0,0,0,5,5.84A10.1,10.1,0,0,0,817.25,308l-2.59,1.49c-.15,0-1.75-.89-1.64-1.19,0,.1.12.45.14.57-.07-.43,0,.72,0,1a16,16,0,0,0,.42,3.38,10.8,10.8,0,0,0,3.75,6,8.3,8.3,0,0,0,11.89-1.61,3,3,0,0,0-1.07-4.11,3.07,3.07,0,0,0-4.11,1.08c.16-.19.13-.15-.11.11l-.12.08c-.31.16-.35.19-.1.08a4,4,0,0,1-.59.17,3.56,3.56,0,0,1-1.21-.07,3.2,3.2,0,0,1-1.19-.69,4.75,4.75,0,0,1-1-1.6c-.68-1.73-.37-3.24-.67-5.09-.35-2.22-1.92-4.13-4.33-4.09a3,3,0,0,0-2.59,1.48c-1.13,2.49-3.89,3.52-6,2a4.57,4.57,0,0,1-1.72-3.06c0,.31,0-.74,0-.88-.08.52.21-.78.19-.7a7.16,7.16,0,0,0,0-4,3,3,0,0,0-4.4-1.79,4.45,4.45,0,0,1-4.31-.72,4.39,4.39,0,0,1-1.28-4.53c1-3.73-4.77-5.32-5.79-1.59Z" transform="translate(-497.29 -106.74)"/><path class="cls-4" d="M810.89,282.44c-.94,4.53-1.54,9.94,2.24,13.42s9.71,2.57,13.27-.79l-5-1.32c.44,1.51.2,3.26.28,4.94a9.78,9.78,0,0,0,1.62,5.36c2.07,2.83,5.35,4,8.62,4.83a3,3,0,1,0,1.59-5.79c-.62-.16-1.25-.32-1.87-.51l-.93-.31c-.51-.17,0,.05-.48-.19a13.62,13.62,0,0,1-1.32-.73,3,3,0,0,1-.77-.84,6.31,6.31,0,0,1-.47-3.37,17,17,0,0,0-.48-5,3,3,0,0,0-5-1.33c-1.44,1.36-4,1.91-5.25.31.25.31-.3-.54-.28-.49a1.46,1.46,0,0,1-.17-.38,4.56,4.56,0,0,1-.33-1.45,18.88,18.88,0,0,1,.54-4.79,3.07,3.07,0,0,0-2.09-3.69,3,3,0,0,0-3.69,2.1Z" transform="translate(-497.29 -106.74)"/><path class="cls-4" d="M841.84,299.89a9.34,9.34,0,0,0,8.11,5.89,11.7,11.7,0,0,0,9.28-3.69,19.11,19.11,0,0,0,3.15-4.26c.22-.39,1.1-1.61,1.07-2.08.07.95-3.08-.73-2.62.44,0,.11.25.27.33.36a9.27,9.27,0,0,0,.94.94A10.35,10.35,0,0,0,872.18,299c4.19-1.55,6.92-5,9.52-8.49,1-1.3.21-3.35-1.08-4.1a3.06,3.06,0,0,0-4.1,1.07c-2,2.64-4.35,5.75-7.61,6.19a3.87,3.87,0,0,1-3.07-.84,9,9,0,0,0-2-1.79,4,4,0,0,0-4,.08c-1.72,1-2.3,3.25-3.34,4.86a9.71,9.71,0,0,1-3.26,3.24,5.08,5.08,0,0,1-.75.36c-.12.05-1.19.3-.77.24a6.3,6.3,0,0,1-1,0c-.22,0-.43,0-.65,0,.27,0,.21,0-.16-.05a3.14,3.14,0,0,1-1.6-.66q-.45-.3-.12-.09a5.93,5.93,0,0,1-.43-.44c.37.45-.39-.8-.18-.27a3.08,3.08,0,0,0-3.69-2.09c-1.42.39-2.7,2.18-2.09,3.69Z" transform="translate(-497.29 -106.74)"/><path class="cls-4" d="M839.64,315c-.53-.06-.18-.13-.13.08l-.14-.08a3.47,3.47,0,0,1,.32.34,1.77,1.77,0,0,1,.23.29l.57.82a12.12,12.12,0,0,0,3,3.18,11.5,11.5,0,0,0,7.87,1.85,16.71,16.71,0,0,0,8.09-3.29,41.51,41.51,0,0,0,3.81-3.19c.92-.86,2-2.28,3-2.76l-1.51.41s-.91-.44-.89-.45a7.61,7.61,0,0,1,.58.75,8.85,8.85,0,0,0,.83.9,11.1,11.1,0,0,0,2.48,1.77,11.71,11.71,0,0,0,5.77,1.35,11.27,11.27,0,0,0,9.6-6.35,10.54,10.54,0,0,0,.93-2.72c0-.2.38-1.58.22-1.72.29.25-1.67,1.18-1.56.86,0-.11,1.3.73,1.38.79a23.34,23.34,0,0,0,2.63,1.89,13.63,13.63,0,0,0,12.47.52,12.07,12.07,0,0,0,6.71-11c-.13-3.85-6.13-3.87-6,0a6.09,6.09,0,0,1-2.78,5.3,7.15,7.15,0,0,1-6.5.43c-2.64-1.05-4.36-3.74-7.41-3.88a4.53,4.53,0,0,0-4.2,2.26c-.9,1.53-.55,3.06-1.16,4.48a5.69,5.69,0,0,1-4,3.11,5.44,5.44,0,0,1-2.93-.42,7.07,7.07,0,0,1-2.59-2.25,4.19,4.19,0,0,0-5.12-1.21,17.79,17.79,0,0,0-3.79,3.26,37.12,37.12,0,0,1-3.05,2.69,15.82,15.82,0,0,1-3.47,2,8,8,0,0,1-3.7.5,5.42,5.42,0,0,1-2.53-.93,22,22,0,0,1-2.45-3.14,6.51,6.51,0,0,0-4.6-2.46c-1.61-.18-3,1.51-3,3a3.07,3.07,0,0,0,3,3Z" transform="translate(-497.29 -106.74)"/><path class="cls-4" d="M829.2,329.42c4.32,2.81,9.31,5.85,14.69,5.26,4.63-.52,9.41-3.45,10.29-8.35H848.4a12.38,12.38,0,0,0,8.78,8.18A15.07,15.07,0,0,0,869.64,332a22.2,22.2,0,0,0,4.8-4.63l.63-.86c.66-3.37-2.22.69-2.48-.33a4.27,4.27,0,0,0,.33.58,11.42,11.42,0,0,0,1.66,2.59c2.76,3,7.43,3.31,11,1.77,4.72-2,7-7.12,8.28-11.78l-5,1.32c3.94,4,9.2,7.68,15.13,6.71,5.46-.88,9.79-6,8.68-11.57l-4.41,3.39a13.26,13.26,0,0,0,19.94-13,3.1,3.1,0,0,0-3-3c-1.45,0-3.22,1.38-3,3a7.79,7.79,0,0,1-2.64,7.28,7.45,7.45,0,0,1-8.27.49,3,3,0,0,0-4.4,3.39c0-.23,0-.16,0,.21a4.85,4.85,0,0,1,0,.66c.09-.6-.34.84-.13.37a3.85,3.85,0,0,1-1.16,1.55,5.64,5.64,0,0,1-3.45,1.38c-3.58,0-6.66-2.7-9-5.14a3,3,0,0,0-5,1.33c-.8,2.94-1.92,6.18-4.62,7.76-.46.27-.27.16-.11.09l-.44.16a8,8,0,0,1-1,.26c.47-.08-.46,0-.59,0h-.46c-.53,0,0,0-.26,0a5.73,5.73,0,0,1-1-.29c.41.18-.22-.15-.33-.22s-.41-.35-.08-.06a1.82,1.82,0,0,1-.31-.31c-.19-.27,0,0,0,0a5.44,5.44,0,0,1-.37-.67c-1-1.88-2.19-3.59-4.55-3.61s-3.45,2-4.81,3.6c-2.08,2.38-5,4.43-8.07,4.53a7.58,7.58,0,0,1-4.22-1.07,5.64,5.64,0,0,1-2.64-3.17c-.81-2.63-5.23-3.08-5.78,0-.45,2.49-2.88,3.94-5.5,4-3.93.1-7.53-2.46-10.67-4.51a3,3,0,0,0-3,5.18Z" transform="translate(-497.29 -106.74)"/><path class="cls-4" d="M821.94,334.86c3.19,10.64,17.18,16.06,26.6,9.94l-3.64-.47c3.64,4.32,8.19,9.15,14.28,9.24,5.33.08,11.15-3.86,10.88-9.64l-5.12,2.12c8,6.75,21.42,3.12,24.76-6.87l-5,1.32c4.14,4.3,9.89,7.74,16.06,6.88,5.63-.78,10.58-5.31,10.74-11.16L907,338.81c5.07,3.1,11.49,5.14,17.18,2.45,4.63-2.19,8-7.89,6.11-12.95l-2.9,3.8a5.77,5.77,0,0,1,.83,0c.52,0-.33-.08.17,0a3.69,3.69,0,0,1,1,.35c.95.45,1.84,1,2.79,1.45a8.94,8.94,0,0,0,7.32.59c5.69-2.31,6.79-8.38,7.1-13.85a3,3,0,0,0-6,0,16.61,16.61,0,0,1-1,5.89,4.47,4.47,0,0,1-2.61,2.52,3,3,0,0,1-1.88-.36l-.85-.44-1.23-.67a10.09,10.09,0,0,0-5.65-1.48c-1.76.19-3.62,1.79-2.89,3.8,0,.13.33,1.17.28.82,0,.13,0,1.21,0,.84a4.17,4.17,0,0,1-.61,1.78,6.53,6.53,0,0,1-3,2.69c-3.76,1.5-8-.46-11.2-2.41a3,3,0,0,0-4.52,2.59,4.88,4.88,0,0,1-1.87,3.57,7.51,7.51,0,0,1-4.12,1.73c-4.14.24-7.8-2.39-10.56-5.26a3,3,0,0,0-5,1.32c0,.06-.27.77-.15.47s-.13.26-.15.3a9.8,9.8,0,0,1-.66,1.13s-.45.61-.27.39-.34.37-.32.35c-.3.32-.61.61-.94.9-.06.06-.56.46-.18.17a5,5,0,0,1-.47.33,13,13,0,0,1-1.13.68c-.13.07-1.15.54-.74.37a11.36,11.36,0,0,1-1.39.47q-.64.18-1.29.3c-.05,0-.62.1-.32.06s-.41,0-.48,0c-.44,0-.87,0-1.31,0l-.72-.05c-.24,0-.39-.05-.07,0a12.73,12.73,0,0,1-2.4-.64c.26.11-.25-.13-.29-.15l-.64-.35-.48-.32c-.76-.51.38.35-.32-.25a3.08,3.08,0,0,0-3.28-.62,3,3,0,0,0-1.85,2.75,2.74,2.74,0,0,1-1.42,2.62,5.2,5.2,0,0,1-2,.88,2.33,2.33,0,0,1-.94.14H859c-.5,0,0,0-.3,0-4.07-.66-7.05-4.47-9.58-7.47a3,3,0,0,0-3.63-.47c-.43.27-.86.53-1.31.76,0,0-.86.37-.38.18l-.71.25a13.84,13.84,0,0,1-1.44.38l-.74.13c.58-.08-.36,0-.39,0a12.51,12.51,0,0,1-1.5,0l-.75,0c-.18,0-.68-.08-.25,0a15.72,15.72,0,0,1-3.09-.78,11.75,11.75,0,0,1-7.23-7.24c-1.1-3.69-6.89-2.12-5.78,1.59Z" transform="translate(-497.29 -106.74)"/><path class="cls-4" d="M816.36,340.38c-.79,7.41,4.33,14.36,10.65,17.71,7.61,4,16.52,3.35,24.73,2.1l-3.38-4.41a9.57,9.57,0,0,0,2.57,11.31c3.42,3,8.21,3.51,12.59,3.37,6.43-.22,15.14-2.76,16.31-10.19l-5.48.72a15.58,15.58,0,0,0,15.29,8.7,15.75,15.75,0,0,0,13.42-11.48l-5.48.72a16.74,16.74,0,0,0,30.56-6.18l-5.49.71c3.21,5.26,10.21,7,15.78,4.7,6.38-2.62,9.63-9.32,10.13-15.9L944,344.85a14.75,14.75,0,0,0,16.14.43,15,15,0,0,0,6.5-14.79c-.22-1.6-2.28-2.48-3.69-2.09-1.73.47-2.31,2.08-2.1,3.69a8.53,8.53,0,0,1-13.82,7.58c-2-1.43-4.36.54-4.51,2.59-.3,4-2.27,8.45-6.15,10.29.27-.14-.08,0-.17.07-.25.09-.51.17-.77.24l-.78.19-.31.06c.21,0,.21,0,0,0a7.89,7.89,0,0,1-2.55-.09,5.89,5.89,0,0,1-2.48-1,6.23,6.23,0,0,1-1.51-1.59c-1.23-2-5-2-5.48.71a10.77,10.77,0,0,1-19.59,4.75c-1.4-2.06-4.79-1.9-5.48.72a9.53,9.53,0,0,1-3.1,4.9A9.21,9.21,0,0,1,879.53,358c-1-2.23-5.09-1.79-5.49.72a6.68,6.68,0,0,1-.18.89s-.32.88-.09.38a7.83,7.83,0,0,1-.41.75s-.55.7-.21.3a7,7,0,0,1-.59.63c-.08.06-.71.58-.3.27a10.29,10.29,0,0,1-1.41.87,13.49,13.49,0,0,1-3,1.09,16.16,16.16,0,0,1-3.37.55c-2.72.19-5.86.26-8.35-1a4.87,4.87,0,0,1-2.41-2.43,2.86,2.86,0,0,1-.17-2.17,3.05,3.05,0,0,0-3.39-4.41c-6.41,1-13.92,1.64-19.79-1.32-5-2.5-8.58-7.24-8-12.7a3,3,0,0,0-3-3,3.08,3.08,0,0,0-3,3Z" transform="translate(-497.29 -106.74)"/><path class="cls-4" d="M808.75,342.75c-1.56,6.76.53,13.57,4.78,18.92,4.43,5.58,11.22,8.58,18.16,9.48a38.44,38.44,0,0,0,12.2-.5l-3.8-2.89a16.32,16.32,0,0,0,22,16.26l-3.8-2.89c.11,5.4,2.54,11.22,7.53,13.84,4.56,2.4,10.87,1.89,14.29-2.24l-5-1.32a16.9,16.9,0,0,0,27.56,9.27l-5.13-2.12c-1.12,9.94,10.36,18.75,19.67,15.18l-3.8-2.89c-.46,5.77,1.1,12.55,6.38,15.76,4.68,2.85,11.38,2.05,14.38-2.77l-5.59-1.52c.25,3.8-1,7.63.14,11.37a13.06,13.06,0,0,0,5.14,6.9c4.45,3.16,11.09,3.79,15.61.44l-3.63-4.71a14.13,14.13,0,0,0,.17,18.22c4.28,4.81,12.11,5.69,17.49,2.28l-4.1-4.1a11.77,11.77,0,0,0,16.36,16.37l-4.41-3.39c-.94,5.62.21,12.85,6,15.52,4.8,2.2,11.81.3,13-5.38h-5.79A12.43,12.43,0,0,0,995.4,484a12.17,12.17,0,0,0,11.35-6.88,3.08,3.08,0,0,0-1.07-4.1,3,3,0,0,0-4.11,1.08,6,6,0,0,1-11.26.1,3.11,3.11,0,0,0-2.89-2.2,3,3,0,0,0-2.9,2.2c0,.18-.08.36-.13.54s-.15.27,0,0c-.09.15-.17.31-.27.45.32-.45,0,0-.13.09s-.46.37-.2.19-.2.11-.25.14-.54.28-.25.15-.23.08-.29.1-1.26.26-.71.2a10.66,10.66,0,0,1-1.13,0c-.25,0-.37,0,0,0-.19,0-.38-.08-.56-.12l-.54-.16c.4.13,0,0-.18-.1a5.63,5.63,0,0,1-2.44-3.33,12,12,0,0,1-.28-5.16,3.06,3.06,0,0,0-1.08-3.15,3,3,0,0,0-3.33-.24,5.81,5.81,0,0,1-8.15-8.17c1.71-2.49-1.65-5.66-4.11-4.1A7.68,7.68,0,0,1,950,440.56a3,3,0,0,0,.24-3.94,3,3,0,0,0-3.87-.77,10.66,10.66,0,0,1-1.36.85c-.17.09-.6.24-.2.1a7.76,7.76,0,0,1-.82.25c-.23.07-.46.11-.69.16-.49.1.68,0-.2,0-.48,0-.95,0-1.43,0-.05,0-1-.1-.36,0l-.71-.13a13.75,13.75,0,0,1-1.55-.45c-.49-.17,0,0-.23-.09s-.44-.2-.65-.32a10.66,10.66,0,0,1-1.36-.85c-.42-.3.48.44-.19-.16-.18-.16-.36-.32-.53-.49s-.33-.34-.49-.52c-.59-.65.26.43-.24-.29a9.42,9.42,0,0,1-.72-1.23c-.38-.78.13.49-.13-.35-.07-.23-.14-.46-.2-.69-.68-2.87.39-6.31.19-9.36a3,3,0,0,0-5.59-1.51c-.07.12-.25.38-.05.13l-.4.44c-.59.6.2-.09-.19.17-.16.11-.33.2-.5.3s-.55.24-.31.15-.29.08-.34.09c-.25.06-.49.13-.73.17.32-.06.07,0-.11,0a5.16,5.16,0,0,1-2.12-.21c-.4-.12-.71-.24-.74-.25a6.8,6.8,0,0,1-1.19-.71c.24.19,0,0-.11-.12s-.36-.35-.53-.53a6,6,0,0,1-.66-.87,9.13,9.13,0,0,1-1.13-2.51,17,17,0,0,1-.47-6.21,3,3,0,0,0-3.8-2.89,10.64,10.64,0,0,1-1.21.39,6.57,6.57,0,0,1-.77.16c-.51.08.38,0-.13,0s-.83,0-1.25,0c-.08,0-.76-.06-.29,0l-.62-.11c-.41-.09-.81-.2-1.21-.32l-.6-.21c-.92-.36.21.11-.3-.14a12,12,0,0,1-1.12-.6l-.54-.34s-.58-.41-.3-.19a10,10,0,0,1-3.05-3.64,3.08,3.08,0,0,1-.36-.87c-.12-.4-.23-.8-.31-1.21,0-.15-.07-.45,0-.12a7,7,0,0,1,0-.79,11.41,11.41,0,0,1,.07-1.43,2.92,2.92,0,0,0-1.84-2.74,3.12,3.12,0,0,0-3.28.62A11.16,11.16,0,0,1,887.46,398a11.33,11.33,0,0,1-6.61-8.18c-.44-2.1-3.59-3-5-1.33a5.72,5.72,0,0,1-7.32,1.14c-2.93-1.68-4.2-5.29-4.26-8.5,0-1.8-1.91-3.61-3.8-2.9a10.32,10.32,0,0,1-14.37-10.47c.13-2.09-2-3.24-3.79-2.89-7.09,1.35-15.1.52-21-3.92-5.06-3.81-8.14-10.58-6.75-16.61a3.07,3.07,0,0,0-2.1-3.69,3,3,0,0,0-3.69,2.1Z" transform="translate(-497.29 -106.74)"/><path class="cls-4" d="M863.84,377.75c5.51,4.63,12.52,9.09,20.06,8.32,6.43-.65,13-4.81,14.25-11.55l-5,1.32a17.66,17.66,0,0,0,29.76-3.58h-5.18a13.9,13.9,0,0,0,14,5.66A13.74,13.74,0,0,0,942,367.83l-2.1,2.09a7.44,7.44,0,0,1,1.93-.1,18.6,18.6,0,0,1,2.6.59,39.81,39.81,0,0,0,5.48,1.34,10.23,10.23,0,0,0,10.41-5.1c1.63-2.59,2.73-7.22,5.72-8.25a1,1,0,0,1,1.07.07c1,.46,1.83,1.15,2.87,1.55a5.63,5.63,0,0,0,6.34-1.72,20.58,20.58,0,0,0,4.47-14.7,3.08,3.08,0,0,0-3-3,3,3,0,0,0-3,3,15.29,15.29,0,0,1-2.72,10.46c-.07.09-.43.52-.5.5a3.58,3.58,0,0,1,.63-.1s-.42-.17-.27-.08c-.53-.3-1.41-.92-2.1-1.25a7.35,7.35,0,0,0-6.05-.26c-4,1.62-5.79,5.27-7.61,8.89a9,9,0,0,1-2.53,3.58,4.68,4.68,0,0,1-3,.49c-4.2-.68-7.92-2.73-12.28-1.69a3,3,0,0,0-2.1,2.09,7.46,7.46,0,0,1-13.3,3c-1.18-1.63-4.15-2.25-5.18,0a12.34,12.34,0,0,1-9.09,7.13,12.17,12.17,0,0,1-11.25-4.76c-1.36-1.72-4.63-.77-5,1.32-.77,4.27-5,7-9.14,7.2-5.7.32-11-3.1-15.13-6.61a3.09,3.09,0,0,0-4.25,0,3,3,0,0,0,0,4.24Z" transform="translate(-497.29 -106.74)"/><path class="cls-4" d="M971.57,372a27.06,27.06,0,0,0,18.55-18,3,3,0,0,0-2.09-3.69,3.06,3.06,0,0,0-3.69,2.09c-.15.47-.3.93-.47,1.38-.08.22-.17.45-.26.67.27-.67,0,.08-.08.17a24.08,24.08,0,0,1-1.38,2.55c-.25.41-.52.81-.8,1.2l-.43.59c.25-.33.14-.18,0,.05a23.34,23.34,0,0,1-2,2.14c-.32.31-.64.61-1,.9l-.55.46c-.2.16-.57.44-.15.13a26,26,0,0,1-2.42,1.6c-.42.24-.84.47-1.27.69l-.65.31c-.15.07-.83.34-.17.08a24,24,0,0,1-2.75.92,3,3,0,0,0,1.6,5.79Z" transform="translate(-497.29 -106.74)"/><path class="cls-4" d="M908.67,398.19a15.62,15.62,0,0,0,16.16,6.91,15.38,15.38,0,0,0,11.74-12.53l-5,1.33a15.39,15.39,0,0,0,16,3.88,15.55,15.55,0,0,0,10-13.11l-4.52,2.59c3.92,2.58,8.26,5.21,13.13,5.05a11.28,11.28,0,0,0,10.17-6.4,15.7,15.7,0,0,1,1.17-2.27s.27-.22,0-.1c.14-.07.54-.13.24-.16a6.55,6.55,0,0,1,2.34,1.21,15.33,15.33,0,0,0,3.08,1.55c4.41,1.51,9.34-.36,12.61-3.42,3.91-3.65,5.42-9.1,6.7-14.1,1-3.74-4.82-5.34-5.78-1.59s-1.84,7.74-4.39,10.65a8.81,8.81,0,0,1-3.87,2.65,5.08,5.08,0,0,1-4-.12c-1.84-.91-3.39-2.3-5.47-2.68a6.22,6.22,0,0,0-6,2.11c-1.15,1.37-1.66,3-2.57,4.52a4.46,4.46,0,0,1-3,2,8.87,8.87,0,0,1-5.34-.61,33.1,33.1,0,0,1-6-3.45c-2.08-1.37-4.29.5-4.51,2.59a9.53,9.53,0,0,1-5.94,7.45,9.39,9.39,0,0,1-9.84-2.47c-1.41-1.48-4.69-1-5,1.33a9.19,9.19,0,0,1-16.93,4.18,3,3,0,1,0-5.18,3Z" transform="translate(-497.29 -106.74)"/><path class="cls-4" d="M925.13,410.68a18.23,18.23,0,0,0,20.49,2.05,16.43,16.43,0,0,0,4.16-3.15,18.19,18.19,0,0,0,1.73-2.18c.23-.34.42-.71.66-1l.2-.26c.07-.36.14.16-.24,0,.87.29,1.83.5,2.73.83a34.54,34.54,0,0,0,3.46,1.06,27.7,27.7,0,0,0,7.25.89,18.84,18.84,0,0,0,12.19-4.58,14.45,14.45,0,0,0,3.53-4.61,36.19,36.19,0,0,0,1.58-5.46c.06-.2.12-.4.19-.59,0,.05-.13.35,0,0,0-.09.24-.61.12-.28s.28-.11,0,0a2.38,2.38,0,0,1-1,.33c-.29,0-.52-.33-.77-.34s.06-.05.15.19a8.14,8.14,0,0,0,.41.77,11.91,11.91,0,0,0,3.65,4.23,14.36,14.36,0,0,0,10.59,2.14c9.59-1.5,14.24-11.34,15.58-20a3.1,3.1,0,0,0-2.09-3.69c-1.43-.39-3.44.49-3.69,2.1a27.06,27.06,0,0,1-3.53,10.44,11,11,0,0,1-6.93,5.18,6.08,6.08,0,0,1-1.7.18,10,10,0,0,1-1.09,0l-.61-.05c.42.05-.11,0-.27-.07-.35-.07-.69-.16-1-.26l-.57-.19c.06,0,.34.15,0,0a9,9,0,0,1-.92-.48c-.11-.07-.91-.67-.59-.39a8.33,8.33,0,0,1-.84-.84s-.29-.38-.14-.16-.16-.27-.19-.32a22.68,22.68,0,0,0-1.27-2.19,4.9,4.9,0,0,0-6.35-1.67c-3.33,1.91-2.74,6.27-4.2,8.95a11,11,0,0,1-7.27,5.24c-4.1,1-8.41,0-12.29-1.45-2.35-.87-4.82-1.53-7.1-.07a7.65,7.65,0,0,0-2.25,2.45c-.25.38-.48.77-.74,1.14l-.15.19c.16-.19-.31.35-.36.4a12,12,0,0,1-.88.87l-.46.4c.24-.2,0,0-.13.09a15.09,15.09,0,0,1-2.27,1.32c-.46.22.34-.13-.13.06-.24.1-.49.19-.73.27s-.79.25-1.19.36-.81.18-1.22.26c-.07,0-.59.08-.13,0l-.62.06a15.64,15.64,0,0,1-2.65,0,2.57,2.57,0,0,1-.73-.1c-.46-.1-.91-.2-1.35-.33a6.94,6.94,0,0,1-1.85-.74c-.41-.22-.8-.46-1.19-.72a3.43,3.43,0,0,1-.74-.58,3.07,3.07,0,0,0-4.24,0,3,3,0,0,0,0,4.24Z" transform="translate(-497.29 -106.74)"/><path class="cls-4" d="M937.81,425.28a12.55,12.55,0,0,0,18.47-2.92,9.56,9.56,0,0,0,1.09-2c.17.24-1,.47-1,.38s.67.29.69.3c.79.44,1.49,1,2.27,1.48a14.82,14.82,0,0,0,9.93,1.53,19.67,19.67,0,0,0,9.18-4.36c1.27-1,2.25-2.41,3.54-3.42a3.68,3.68,0,0,1,3.11-.64c3.25.41,6.9,1.61,10-.62,1.35-1,2.18-2.36,3.41-3.44a1.41,1.41,0,0,1,.92-.31,10.38,10.38,0,0,1,2.58.47,13.37,13.37,0,0,0,16.34-12.44c.11-3.86-5.89-3.85-6,0a7.35,7.35,0,0,1-3.42,5.68,7.06,7.06,0,0,1-3.12,1.17,17.46,17.46,0,0,1-4.12-.62A8.69,8.69,0,0,0,996,406a12.17,12.17,0,0,0-3.55,3.23,2.92,2.92,0,0,1-1.21,1.05,4,4,0,0,1-.79.09,28.39,28.39,0,0,1-4.23-.59,11.17,11.17,0,0,0-5.11.19,11.36,11.36,0,0,0-4.42,3c-2,2-3.88,3.75-6.47,4.65a12,12,0,0,1-3.75.73,8.6,8.6,0,0,1-3.23-.52c-1.42-.57-2.54-1.68-3.92-2.32a5.44,5.44,0,0,0-6,.49,6.82,6.82,0,0,0-1.63,2.27c-.15.28-.28.57-.45.85a5.54,5.54,0,0,1-.33.51c.17-.2.14-.16-.09.11a4.65,4.65,0,0,1-1.24,1.11c-.25.16-.52.32-.79.46,0,0-.84.37-.4.2a7,7,0,0,1-3.72.54c-.93-.06.49.13-.41-.07a9.21,9.21,0,0,1-1.17-.33c-.86-.32.42.25-.39-.19-.1-.06-1-.62-.67-.38a3.11,3.11,0,0,0-4.24,0c-1,1-1.29,3.25,0,4.25Z" transform="translate(-497.29 -106.74)"/><path class="cls-4" d="M1003.53,419.15a34.43,34.43,0,0,0,10.77,0,15.11,15.11,0,0,0,8.88-5.52c4.7-6,6.32-14.4,6.29-21.83,0-3.86-6-3.87-6,0a37.41,37.41,0,0,1-1.26,9.93,23,23,0,0,1-3.51,8c-3.57,4.75-9.79,4.1-15.17,3.49-1.61-.19-3,1.51-3,3a3.08,3.08,0,0,0,3,3Z" transform="translate(-497.29 -106.74)"/><path class="cls-4" d="M954,440.36c3.87,1.28,8,2.61,12.13,2.12a13.33,13.33,0,0,0,9.84-5.54,3,3,0,0,0-1.07-4.11,3.08,3.08,0,0,0-4.11,1.08c-.2.28-.2.3,0,0l-.35.4a7.76,7.76,0,0,1-.79.73c.48-.39-.39.24-.49.31l-.72.38q-.48.23,0,0l-.51.2c-.35.12-.7.22-1.06.31s-.72.16-1.08.21c.65-.1-.31,0-.44,0-3.29.2-6.41-.88-9.71-2a3,3,0,0,0-3.69,2.1,3.07,3.07,0,0,0,2.09,3.69Z" transform="translate(-497.29 -106.74)"/><path class="cls-4" d="M977.18,436.12l1.07-2.14a3.28,3.28,0,0,0,.3-2.31,2.27,2.27,0,0,0-.53-1,2.15,2.15,0,0,0-.84-.77l-.72-.31a3.1,3.1,0,0,0-1.6,0l-.71.31a3,3,0,0,0-1.08,1.07L972,433.09a3.37,3.37,0,0,0-.31,2.31,2.39,2.39,0,0,0,.54,1,2.25,2.25,0,0,0,.84.78l.72.3a3.06,3.06,0,0,0,1.59,0l.72-.3a3.1,3.1,0,0,0,1.08-1.08Z" transform="translate(-497.29 -106.74)"/><path class="cls-4" d="M974.58,433.17a16.58,16.58,0,0,0,15.93,5.49,9.46,9.46,0,0,0,6.5-5.17,36.18,36.18,0,0,0,1.33-3.6,5,5,0,0,1,1.33-2.37l-4.71-.61c2.72,3.7,6.46,6.52,11.1,7.12a12.33,12.33,0,0,0,11.45-4.83,11.55,11.55,0,0,0,1.44-2.82c.13-.36.24-.73.38-1.08.2-.5-.13.31.08-.17a1.82,1.82,0,0,1,.15-.27c.11-.18.1-.18,0,0-.08,0-.89.91-.74.27,0,0-2.79-1.32.37.1a8.33,8.33,0,0,0,1.29.39,12.09,12.09,0,0,0,3.28.35,14.7,14.7,0,0,0,11.07-6.13c3-4.15,3.79-9.69,3.12-14.68a3.09,3.09,0,0,0-3-3c-1.45,0-3.21,1.38-3,3,.46,3.41.37,7.07-1.34,10.15a8.84,8.84,0,0,1-6.85,4.66c-1.66.07-3.09-.84-4.94-.84a5.38,5.38,0,0,0-4.77,3.39c-.69,1.53-.91,2.81-1.9,3.81a6.42,6.42,0,0,1-3.44,1.73,7.65,7.65,0,0,1-4.37-.7,11.37,11.37,0,0,1-4.17-3.49,3.05,3.05,0,0,0-4.71-.6c-1.69,1.56-2.45,3.69-3.14,5.82-.55,1.68-.92,3-2.64,3.57-3.8,1.34-8.25-.71-10.83-3.74a3,3,0,0,0-4.24,4.24Z" transform="translate(-497.29 -106.74)"/><path class="cls-4" d="M966.37,451.65a18.38,18.38,0,0,0,15.5-2.6,13,13,0,0,0,1.66-1.3c.47-.49-.17-.08-.18-.07s3.37,1.93,3.7,2.1a23.21,23.21,0,0,0,8.57,2.7,12.24,12.24,0,0,0,12.28-6.74c.17-.38.45-.75.58-1.13l-.11.12c.3-.27.27-.28-.1,0,0,0-1,.57-.79.13a29.26,29.26,0,0,0,4.09,1.62,15,15,0,0,0,18.64-14.19l-3.8,2.89c5.77,2.05,12.54,3.51,17.62-.9,4.22-3.67,4.62-9.93,4.6-15.12,0-3.86-6-3.87-6,0a31.73,31.73,0,0,1-.37,5.9,8.36,8.36,0,0,1-2.23,4.76,6.74,6.74,0,0,1-5.19,1.36,27.19,27.19,0,0,1-6.83-1.78c-1.94-.69-3.71,1.08-3.8,2.89a9.16,9.16,0,0,1-6.86,8.36,9.29,9.29,0,0,1-5.75-.43c-1.39-.57-2.56-1.34-4.14-1.28a5,5,0,0,0-3.52,1.82,13.25,13.25,0,0,0-1.56,2.71,4.6,4.6,0,0,1-1.45,1.81,7.35,7.35,0,0,1-5,1.26,16.27,16.27,0,0,1-6.49-2.21c-2.63-1.42-5.27-3.63-8.37-2.08-1.13.57-2,1.54-3.08,2.21a11.9,11.9,0,0,1-3.19,1.43,12.35,12.35,0,0,1-6.87,0c-3.73-1.05-5.32,4.74-1.6,5.78Z" transform="translate(-497.29 -106.74)"/><path class="cls-4" d="M774.58,272.67c-2.78-7.84-5.8-16.73-1.81-24.58,3.43-6.75,10-11,17.33-12.55a35.21,35.21,0,0,1,14,.21,3.08,3.08,0,0,0,3.7-2.09,3,3,0,0,0-2.1-3.69c-9.49-2-20-1.19-28.24,4.27-7.62,5-12.77,13.35-12.68,22.61.06,6,2,11.8,4,17.41a3.09,3.09,0,0,0,3.7,2.1,3,3,0,0,0,2.09-3.69Z" transform="translate(-497.29 -106.74)"/><path class="cls-4" d="M788.54,262.68a6.35,6.35,0,0,1-3.15-4.26,5.41,5.41,0,0,1,2.19-5.19,6.09,6.09,0,0,1,2.67-1.12c1.65-.18,3.15-.13,4.57-1.12,1.63-1.13,2.13-2.86,2.35-4.73a8.58,8.58,0,0,1,5.31-7.35,7.26,7.26,0,0,1,2.92-.63c1.93,0,3.72.18,5.43-.94,2.54-1.66,2.93-5,4.52-7.35a17.48,17.48,0,0,1,5.22-4.83c6-3.7,13.27-4.08,20.2-3.75a3,3,0,0,0,3-3,3.06,3.06,0,0,0-3-3c-7.35-.35-15,.21-21.61,3.65a24,24,0,0,0-7.41,5.83,21.17,21.17,0,0,0-2.52,3.65,25.67,25.67,0,0,0-1.08,2.39c-.16.4-.47,1.39-.7,1.48.25-.09-.84-.09-.86-.09a16.6,16.6,0,0,0-2.23,0,14.7,14.7,0,0,0-11.58,7.83,13.24,13.24,0,0,0-1.36,4c0,.16-.23,2.2-.31,2.2a1.57,1.57,0,0,0,.49-.39c0,.14-.79.09-1,.1a11.91,11.91,0,0,0-8.45,4.08,11.28,11.28,0,0,0-2.4,10.4,12.06,12.06,0,0,0,7.19,7.89c1.49.63,3.3-.67,3.69-2.09a3.08,3.08,0,0,0-2.1-3.69Z" transform="translate(-497.29 -106.74)"/><path class="cls-4" d="M816.37,258.45c.32-5.09.63-10.8,3.86-14.88a9.17,9.17,0,0,1,5.41-3.46c2.62-.57,5.46-.1,8.07.3,1.69.26,4.06-.75,3.8-2.89A10.8,10.8,0,0,1,842.1,227a10.66,10.66,0,0,1,12,.5c1.39,1,3.26.17,4.11-1.07a15.22,15.22,0,0,1,5.13-4.59,18.8,18.8,0,0,1,6.63-2.2,19,19,0,0,1,6.94.39,14.6,14.6,0,0,1,3.1,1.11,17,17,0,0,1,3,2,3.08,3.08,0,0,0,4.24,0,3,3,0,0,0,0-4.24c-10.15-8.65-26.72-6.47-34.27,4.54l4.1-1.08a16.3,16.3,0,0,0-25.59,15.16l3.8-2.89c-3.61-.56-7.2-1-10.83-.39a14.52,14.52,0,0,0-8.25,4.8c-4.71,5.42-5.43,12.53-5.86,19.41a3,3,0,0,0,6,0Z" transform="translate(-497.29 -106.74)"/><path class="cls-4" d="M844.76,255.12a34.53,34.53,0,0,1-1.07-11.76c0-.24,0-.47.06-.7.07-.47,0-.22,0-.12,0-.6-.09-.18-.19.14,0,0-.13.1-.14.14l.32,0c.54-.07,1.08-.07,1.62-.1a55.19,55.19,0,0,1,6.3.09c2,.13,4.1.72,6.06.54a5.66,5.66,0,0,0,4.61-3.52c1.25-2.71,2.77-4.93,5.5-6a9.06,9.06,0,0,1,9.2,1.68c2.1,1.87,4.78.43,5.12-2.13a8.55,8.55,0,0,1,15.46-3.51c1,1.27,3.19,1,4.24,0a3.08,3.08,0,0,0,0-4.25,14.74,14.74,0,0,0-15.28-4.85,15,15,0,0,0-10.42,12.61l5.12-2.12a15,15,0,0,0-22.45,2.39,13.11,13.11,0,0,0-1.28,2.21c-.18.4-.33.82-.53,1.21a2.76,2.76,0,0,0-.24.44q-.16.25,0,0l.13-.07.19-.05c.35-.07.27-.09-.23-.06l-.31,0c-.66-.06-1.33-.18-2-.27-1.28-.15-2.57-.27-3.86-.33a48.2,48.2,0,0,0-7.11.08c-2.46.24-4.79,1.25-5.54,3.82a24.71,24.71,0,0,0-.42,7.91,42.24,42.24,0,0,0,1.33,8.2c1,3.72,6.78,2.14,5.79-1.6Z" transform="translate(-497.29 -106.74)"/><path class="cls-4" d="M972.77,461.35c8.3,2.15,16.92,4.25,25.52,2.66,6.84-1.26,13.5-5.15,16.87-11.4l-4.71.61a14.42,14.42,0,0,0,22.88-.45,17.59,17.59,0,0,0,2.66-5.68c.08-.27.07-.55.27-.66,0,0-.25.29-.26.28a5.6,5.6,0,0,0,1.12.16,16.77,16.77,0,0,0,2,.23,15.78,15.78,0,0,0,11.17-4.34,15.51,15.51,0,0,0,5.19-12.33,3.08,3.08,0,0,0-3-3,3,3,0,0,0-3,3A10.27,10.27,0,0,1,1039,441.1c-.55,0-1.68-.3-2.57-.36a5.94,5.94,0,0,0-3.47.79c-1.87,1.11-2.44,3.16-3,5.1a8.55,8.55,0,0,1-15.19,2.34c-1.19-1.51-3.88-.94-4.71.61-2.73,5.06-8,7.75-13.65,8.71-7.09,1.21-14.93-.9-22-2.73-3.74-1-5.34,4.82-1.6,5.79Z" transform="translate(-497.29 -106.74)"/><path class="cls-4" d="M1004,472.17c7.25,2.22,16.79,4.09,22.34-2.73a15.85,15.85,0,0,0,2.52-5.07,1.11,1.11,0,0,1-.21.08c0-.05.2-.05.25-.06a9.76,9.76,0,0,1,2.22.36,11.41,11.41,0,0,0,10.33-2.25,11.28,11.28,0,0,0,3.89-11l-2.09,3.69c.36-.08.38-.09.06,0h.28c-.27,0-.29,0-.08,0l.43.11a4.75,4.75,0,0,1,1.29.54,19.73,19.73,0,0,0,3.66,1.58c3.7.93,6.57-1.18,7.87-4.58a58.32,58.32,0,0,0,2.6-10.27,91.35,91.35,0,0,0,1.38-11.66,3,3,0,1,0-6,0,79.69,79.69,0,0,1-3.41,19.31c-.17.52-.37.9-.51,1.29-.25.66-.24.3-.15.2.42-.46,0,.18,0,0,.32,0,.36,0,.14,0s-.18,0,.12.05a5.2,5.2,0,0,1-.68-.17c-.15,0-.63-.22-.25-.07-.24-.1-.47-.22-.71-.33-2.47-1.2-4.78-2.37-7.6-1.74a3.06,3.06,0,0,0-2.09,3.69,4.78,4.78,0,0,1-1,3.8,5.81,5.81,0,0,1-3,2.2,4.77,4.77,0,0,1-1.76.14c-1-.14-1.91-.44-2.88-.6-2.28-.37-4.62-.19-6.33,1.56-1.54,1.56-1.47,3.67-2.64,5.24a7.75,7.75,0,0,1-3.64,2.4c-4,1.29-8.59-.15-12.71-1.41-3.7-1.13-5.28,4.66-1.59,5.79Z" transform="translate(-497.29 -106.74)"/><path class="cls-4" d="M1032.14,473.37c2.42,3.58,5.21,7.44,9.58,8.69,3.87,1.11,8.72-.1,10.67-3.88a3,3,0,0,0-5.18-3,4.76,4.76,0,0,1-.28.49c-.22.4.06-.18.14-.17s-.35.37-.37.39c-.35.38.41-.24.11-.07s-.53.3-.78.46.63-.2.12-.06l-.54.17-.37.08c-.63.16.7,0,0,0-.33,0-.64,0-1,0l-.48,0c-.37,0,.67.15.13,0l-1-.27-.18-.06c-.22-.08-.12,0,.27.12-.09,0-.41-.21-.49-.25a10.76,10.76,0,0,1-1-.63c-.25-.17-.36-.29,0,0l-.55-.47c-.29-.27-.57-.55-.85-.84s-.54-.6-.79-.91c0,0-.48-.59-.23-.27s-.16-.22-.2-.28c-.53-.72-1-1.46-1.54-2.2a3,3,0,0,0-5.18,3Z" transform="translate(-497.29 -106.74)"/><path class="cls-4" d="M1024.21,482.52a17.21,17.21,0,0,0,18.58,13.28,18,18,0,0,0,6.43-2,11.9,11.9,0,0,0,2.42-1.62c.35-.32,1-.14-.48-.28-1.18-.12-.9-.18-.48.32s.64.81,1,1.18a12.59,12.59,0,0,0,11.46,3,13.53,13.53,0,0,0,9-7.54,14.14,14.14,0,0,0,1.56-6.26c0-.15,0-.34,0-.34s-.36.47-.38.51c-.16.27-.47.08.2.09,1,0,1.68.23,2.89.32a14.18,14.18,0,0,0,12.19-5,12.12,12.12,0,0,0,2.54-6.24,10.49,10.49,0,0,0-.14-3c-.18-1-.78-2-.73-3a9.09,9.09,0,0,1,1.14-2.65,21.22,21.22,0,0,0,1.36-3.77,12.49,12.49,0,0,0-.6-8.2c-2-4.33-7.47-6.62-11.78-4.3-3.4,1.83-.37,7,3,5.18,0,0,.46-.24.22-.12s.49,0,.14,0,.72,0,.44,0a3.06,3.06,0,0,1,1.41.58,4.72,4.72,0,0,1,.9.89,3.48,3.48,0,0,1,.63,1.68c.62,4.05-3,7.08-2.88,11,0,1.93,1.09,3.65.9,5.42a6.28,6.28,0,0,1-1.68,3.37c-2.49,2.56-5.87,2.32-9.11,2a6.08,6.08,0,0,0-5.29,1.61c-1.45,1.63-1.25,3.7-1.63,5.43-.58,2.66-2.35,5.29-4.63,6.25a6.49,6.49,0,0,1-7.06-1.16c-.53-.54-.94-1.18-1.51-1.68a4.49,4.49,0,0,0-3.91-1.08c-1.85.41-3.19,1.93-4.9,2.69a11.24,11.24,0,0,1-15.5-8,3,3,0,0,0-5.79,1.59Z" transform="translate(-497.29 -106.74)"/><path class="cls-4" d="M1063.84,435.12a13.17,13.17,0,0,0,5.72,9.85,12.84,12.84,0,0,0,10.69,2,3,3,0,0,0,2.09-3.69,3.06,3.06,0,0,0-3.69-2.1l-.48.12c-.11,0-.84.14-.26.06s-.05,0-.17,0l-.49,0c-.36,0-.71,0-1.07,0-.55-.05.73.13.15,0l-.49-.09c-.32-.08-.64-.16-.95-.27l-.47-.16c-.58-.2.66.31.11.05a12.48,12.48,0,0,1-1.81-1l-.16-.11c.43.31-.06-.06-.15-.13q-.4-.36-.78-.75l-.33-.37c-.16-.18-.39-.63,0,.09-.17-.28-.39-.53-.56-.81s-.33-.57-.48-.87c-.22-.47,0-.18,0,.12a3.61,3.61,0,0,0-.17-.46,8.39,8.39,0,0,1-.26-.95c0-.12-.13-.84-.07-.26s0-.15,0-.26a3,3,0,0,0-6,0Z" transform="translate(-497.29 -106.74)"/><path class="cls-4" d="M1057.58,448a12.66,12.66,0,0,0,5.29,9.25,12.37,12.37,0,0,0,9.9,2.16,3,3,0,0,0,2.1-3.69,3.07,3.07,0,0,0-3.69-2.1c-.15,0-.31.05-.46.09.84-.25.47-.06.19,0s-.61,0-.92,0l-.45,0-.31,0,.5.07a3.88,3.88,0,0,1-.9-.18c-.3-.08-.59-.17-.88-.27s-.29-.12-.43-.16c.86.27.37.15.15.05a12.08,12.08,0,0,1-1.65-1c-.25-.18.62.5.12.09l-.35-.3c-.22-.21-.44-.43-.65-.65l-.31-.35c-.41-.49.27.38.09.12s-.35-.5-.51-.76-.3-.53-.44-.81c-.27-.58.17.46.06.16l-.15-.43a8.84,8.84,0,0,1-.25-.88c0-.15-.05-.3-.08-.46a3.79,3.79,0,1,0,.06.42,1.55,1.55,0,0,1,0-.31,3.07,3.07,0,0,0-3-3,3,3,0,0,0-3,3Z" transform="translate(-497.29 -106.74)"/><path class="cls-4" d="M1071.81,457.94a12.44,12.44,0,0,0,8.76,6.82,12.68,12.68,0,0,0,11.47-3.67,3,3,0,1,0-4.24-4.24c-.25.26-.52.49-.77.74s.41-.27,0,.05c-.13.08-.26.18-.4.26a8.48,8.48,0,0,1-.93.52c-.3.15-.43.17-.05,0l-.45.16c-.34.11-.69.2-1,.28a3.91,3.91,0,0,1-.58.1c.23,0,.45,0,.08,0s-.79,0-1.19,0c-.08,0-.42,0-.47,0,.14.14.51.08,0,0-.33-.07-.66-.16-1-.26a2.89,2.89,0,0,1-.42-.15c0,.06.56.26,0,0-.3-.15-.6-.31-.89-.49-.13-.08-.26-.16-.38-.25s-.56-.46-.25-.17-.07-.08-.13-.13a5,5,0,0,1-.41-.39,3.26,3.26,0,0,1-.31-.33s-.5-.55-.21-.21,0-.09-.1-.15-.21-.32-.31-.48a9.48,9.48,0,0,1-.52-1,3,3,0,0,0-4.11-1.08,3.1,3.1,0,0,0-1.08,4.11Z" transform="translate(-497.29 -106.74)"/><path class="cls-4" d="M1057,464.53l6.32,5.31c2.06,1.73,4.06,3.66,6.63,4.57,5.24,1.87,9.29-2.32,12-6.22a3,3,0,1,0-5.18-3l-.69,1c-.57.78.16-.2-.19.23l-.39.47a11.51,11.51,0,0,1-.83.88c-.18.17-.36.34-.55.5.24-.2.06,0-.09,0s-1,.55-.53.36c-.17.07-.35.11-.53.17-.72.25.24,0-.18,0a2.76,2.76,0,0,1-1.69-.48,11.53,11.53,0,0,1-1.82-1.33l-2.62-2.21-5.39-4.53a3.08,3.08,0,0,0-4.25,0,3,3,0,0,0,0,4.24Z" transform="translate(-497.29 -106.74)"/><path class="cls-4" d="M1044.19,458.77a12.92,12.92,0,0,0-.38,11.66,9.77,9.77,0,0,0,9.2,5.21,8.56,8.56,0,0,0,2.5-.56,6.91,6.91,0,0,0,1.29-.61c.25-.15,1-.55,1.16-.81l-1.18-.55c-1-.84-1.36-.91-1.1-.23,0,0-.06-.52,0,.1s0,1,0,1.58c0,1.05-.09,2.11-.07,3.16.06,4.09,1.47,7.7,4.93,10a11.24,11.24,0,0,0,11.31.68,3,3,0,1,0-3-5.19,5.4,5.4,0,0,1-6.28-1.69,4,4,0,0,1-.79-2,15,15,0,0,1-.13-3.21c.06-2.18.45-4.76-.79-6.69a4.12,4.12,0,0,0-3.73-1.88,5.84,5.84,0,0,0-3,1.31,3,3,0,0,1-2.88.34,3.73,3.73,0,0,1-2.46-2.91,7.09,7.09,0,0,1,.66-4.75,3.08,3.08,0,0,0-1.08-4.1,3,3,0,0,0-4.1,1.08Z" transform="translate(-497.29 -106.74)"/><path class="cls-4" d="M1081.51,450.67c5.83,3.53,13.49,2.22,18.46-2.21a14,14,0,0,0,2.93-3.69,15.91,15.91,0,0,0,1-2.4,2.81,2.81,0,0,0,.16-.49c.07-.45.06-.06,0-.05l-.39.43-.68.2c-.12.09-.26-.09.12,0,1.49.49,3.22,1.65,5,1.88a8.21,8.21,0,0,0,5.58-1.42c3.78-2.62,5.06-6.83,5.1-11.26,0-1,0-2-.08-2.95a8.81,8.81,0,0,1,0-2.76c.22-.61.87-1,1.35-1.48a15.21,15.21,0,0,0,1.92-2.17,15,15,0,0,0,2.81-10.16,15.69,15.69,0,0,0-1.58-5.65c-.38-.75-.89-1.42-1.32-2.14a2.13,2.13,0,0,1-.16-2.05c1.26-4.63,2.8-9.68,1-14.4s-6.69-7.44-11.46-5.3c-1.48.66-1.83,2.81-1.08,4.1a3.07,3.07,0,0,0,4.1,1.08c-.27.12.51,0,.11,0,.45,0,.1-.06.55,0a3.13,3.13,0,0,1,1.23.66,5.26,5.26,0,0,1,1.32,3.35,17.79,17.79,0,0,1-.51,5.34c-.46,2-1.29,3.82-1.44,5.86s.88,3.83,2,5.58a8.8,8.8,0,0,1,1.27,3.41,9.65,9.65,0,0,1-1.72,6.92c-1.05,1.36-2.58,2.25-3.45,3.78-1,1.77-1,3.79-.91,5.77.14,3,.52,6.91-1.82,9.05a5.21,5.21,0,0,1-1,.68c-.19.08-.77.21-.74.21-.14,0-.17,0-.47,0-1.19-.26-2.71-1.38-4.13-1.74a5,5,0,0,0-5.57,2,9.53,9.53,0,0,0-1,2.25c0,.14-.1.29-.16.43,0-.06.15-.32,0,0a10.53,10.53,0,0,1-.52.93,10,10,0,0,1-2.28,2.42,14.37,14.37,0,0,1-1.86,1.09s-.46.2-.21.1-.3.11-.36.13l-1,.33c-.4.11-.8.2-1.21.27,0,0-.5.08-.21,0l-.36,0a15.27,15.27,0,0,1-2.14,0c-.36,0,0,0,0,0a5.6,5.6,0,0,1-.59-.12,9.17,9.17,0,0,1-1-.27,5.35,5.35,0,0,1-1.65-.79c-3.31-2-6.33,3.19-3,5.18Z" transform="translate(-497.29 -106.74)"/><path class="cls-4" d="M1074,429.67a41.77,41.77,0,0,0,2.14-5.95,8.7,8.7,0,0,1,2.32-4.2,2.16,2.16,0,0,1,2.71-.24,13.88,13.88,0,0,1,3.74,3.59,3,3,0,0,0,3.27.62,3.06,3.06,0,0,0,1.85-2.74c.56-6.81,2.49-15.18,9.28-18a9.64,9.64,0,0,1,4.56-.67,9.72,9.72,0,0,0,5.59-1c2-1.24,2.76-3.42,2.92-5.66,0-.5,0-1,0-1.48,0,0,.07-1,0-.53,0-.14.2-1.16.2-.81,0-.51.25,0-.22.1,3.7-1.06,2.13-6.85-1.6-5.78a6,6,0,0,0-4.16,4.89,23.55,23.55,0,0,0-.24,3.24c0,.19-.23,1.23,0,.85-.09.14-.56.22-.39.2a11.54,11.54,0,0,1-1.44,0,28.24,28.24,0,0,0-2.91,0,16.17,16.17,0,0,0-6,1.78c-8.43,4.4-10.91,14.15-11.63,22.89l5.12-2.12c-3.2-3.93-8-7.51-13.16-4.66a11.24,11.24,0,0,0-4.62,5.42c-1,2.35-1.43,4.95-2.56,7.25a3.09,3.09,0,0,0,1.08,4.11,3,3,0,0,0,4.11-1.08Z" transform="translate(-497.29 -106.74)"/><path class="cls-4" d="M1079.53,439a51.14,51.14,0,0,1,11-3.69c1.76-.38,3.53-.63,5.31-.86,2-.27,4.06-.9,5.21-2.76s.74-3.9.78-5.9a12.5,12.5,0,0,1,.93-4.91,6.77,6.77,0,0,1,2.65-3.09c1.32-.76,3.31-.56,4.6-1.84,1.84-1.84,1.16-4.44,1.39-6.77a5.7,5.7,0,0,1,.53-2,2.5,2.5,0,0,1,.6-.83,1.6,1.6,0,0,1,.48-.3,3.08,3.08,0,0,0,2.1-3.69,3,3,0,0,0-3.69-2.09c-4.2,1.43-5.88,5.44-6.06,9.6a17,17,0,0,0,0,2.84c-.52-.2,1.76-1.2.81-1.38a2.43,2.43,0,0,0-.52.08,8.72,8.72,0,0,0-1.22.31,11.57,11.57,0,0,0-4.74,3.11c-2.77,3.07-3.8,7.14-3.84,11.2a14.27,14.27,0,0,0,0,2.72c-.1-.05.37-.44.38-.47,0,.17-.46.16-.69.21-.45.09-1.76.23-2.56.34-1.06.15-2.12.32-3.16.53a57.56,57.56,0,0,0-13.3,4.48,3,3,0,0,0-1.08,4.1,3.07,3.07,0,0,0,4.1,1.08Z" transform="translate(-497.29 -106.74)"/><path class="cls-4" d="M1067.8,412.83a10.74,10.74,0,0,1,7.91-6c2.16-.3,4.32-.1,6.33-1.09,2.48-1.22,3.39-3.7,3.57-6.29,0-.52,0-1,.08-1.55a4.27,4.27,0,0,1,.14-.93,12.22,12.22,0,0,1,.77-2.39,12.73,12.73,0,0,1,7.43-6.67c1.91-.62,3.14-.41,5.22-.5a5.55,5.55,0,0,0,5.4-4.68c.39-2.1.19-4.27.38-6.38a24,24,0,0,1,3.34-10.57,13.07,13.07,0,0,1,3.56-3.83,3.55,3.55,0,0,1,2.24-.81c-.55-.05.72.33.21.08a4.14,4.14,0,0,1,.5.3c-.33-.24.08.09.19.21a9.82,9.82,0,0,1,1.94,4c.6,2.06,1.08,4.17,1.55,6.26,2.15,9.4,3.76,20-1.12,28.89-1.86,3.39,3.32,6.42,5.18,3,5-9.11,4.49-19.65,2.57-29.55-.88-4.53-1.71-9.4-3.67-13.6a10,10,0,0,0-4.11-4.7,8.07,8.07,0,0,0-7.63.21c-4.19,2.18-7,6.52-8.7,10.78a37.54,37.54,0,0,0-2.21,13.37c0,.24-.07,1.09,0,.9,0,.08-.18.63-.17.63s.08-.24.13-.27c1-.54,0-.25-.56-.28s-1.07,0-1.6,0a18,18,0,0,0-6.86,1.83,18.64,18.64,0,0,0-9,9.7,14.81,14.81,0,0,0-.94,3.34c-.18,1.15-.13,2.51-.32,3.57a5.06,5.06,0,0,1-.14.52s.32-.29,0,0a4.34,4.34,0,0,1-.94.3c-.84.13-2.13.12-3.15.24a16.48,16.48,0,0,0-12.73,8.93,3.08,3.08,0,0,0,1.08,4.11,3,3,0,0,0,4.1-1.08Z" transform="translate(-497.29 -106.74)"/><path class="cls-4" d="M1059.22,397.73a1.21,1.21,0,0,1,.56-.33c.32-.08.64-.17,1-.23s0,0-.08,0l.6,0c1.26-.08,2.54,0,3.81,0,3.07,0,6.28-.79,7.93-3.67,1-1.8,1-3.76,1.25-5.75,0,.38.11-.56.14-.68.07-.32.16-.64.26-.95a6.24,6.24,0,0,1,.65-1.55,12.33,12.33,0,0,1,5.32-5.23,11.13,11.13,0,0,1,8.07-1c1.71.46,4-.9,3.8-2.89l-1-8.73-.48-4.37a17.62,17.62,0,0,1-.26-3.44c.06-.62,0-.11.21-.42-.19.32.06.05-.06.06-.3,0,.21,0,.28-.06.31-.08-.37,0,.2,0l.6,0c.47,0,1,0,1.42.07,2.12.15,4.33.39,6.35-.42,1.38-.54,2.75-2.05,2.1-3.69a16.94,16.94,0,0,1-1.23-9.81,11.37,11.37,0,0,1,1.72-3.92,7.53,7.53,0,0,1,3.11-2.34c-.32.14.53-.2.64-.23.31-.1.62-.17.93-.25l.47-.1c-.43.07.08,0,.15,0a10,10,0,0,1,1.1,0c.14,0,1,.11.59,0a7.32,7.32,0,0,1,.9.21,5.71,5.71,0,0,1,.58.21c-.07,0-.31-.14,0,0a6,6,0,0,1,.93.57c-.28-.22.45.46.54.55a5.42,5.42,0,0,1,.42.51,8.05,8.05,0,0,1,1,1.86,24,24,0,0,1,1.11,4.88c.63,4.49,1.18,9.56,1.76,14.27a3.1,3.1,0,0,0,3,3c1.47,0,3.2-1.38,3-3-.63-5.16-1.21-10.34-1.92-15.5-.59-4.21-1.78-8.6-5.28-11.33a11.84,11.84,0,0,0-11.13-1.57,14.22,14.22,0,0,0-8.72,8.51c-1.87,4.78-1.26,10.38.59,15.07l2.1-3.69-.72.24c-.15.05-.69.13-.28.08a9.72,9.72,0,0,1-1.62,0c-1.14-.05-2.27-.21-3.41-.22-2.66,0-5.34.91-6.62,3.42-1.44,2.84-.51,6.4-.18,9.4l1.11,10.19,3.8-2.89a18,18,0,0,0-17.94,5.83,17.12,17.12,0,0,0-4.1,9.4A11.22,11.22,0,0,1,1068,390c0,.15-.31.67-.19.51s-.1.09-.11.11c-.34.53.15-.08-.11.08a3.54,3.54,0,0,1-.33.19s.44-.15.11-.06-.6.16-.91.22c.51-.1-.14,0-.33,0-.39,0-.79,0-1.18,0-3.56,0-7.12-.2-10,2.37a3,3,0,0,0,4.25,4.24Z" transform="translate(-497.29 -106.74)"/><path class="cls-4" d="M1049.83,386.35a34,34,0,0,0,10.74.42,14.08,14.08,0,0,0,8.57-5.07c1.89-2.32,3.26-5.22,5.21-7.37a9.18,9.18,0,0,1,3.27-2.45,3,3,0,0,1,2.67,0c2.16,1.14,5.31-.78,4.41-3.39-1.47-4.24-3.4-9.21-2-13.73a8.3,8.3,0,0,1,2.74-3.93,4.45,4.45,0,0,1,3.93-1c2.42.6,4-1.46,3.69-3.69a47.23,47.23,0,0,1,0-12.68,22.7,22.7,0,0,1,1.24-5.54,7,7,0,0,1,1-1.67,5.88,5.88,0,0,1,.66-.66s.38-.32.16-.15.39-.25.45-.28a7.23,7.23,0,0,1,3-.92,9.19,9.19,0,0,1,4,.53,6.08,6.08,0,0,1,1.52.64q.43.22.84.48l.54.36c.07.05.39.3.16.11a15.5,15.5,0,0,1,3.28,3.76c2.15,3.37,3.33,7.2,4.48,11s6.91,2.12,5.78-1.59c-2.45-8.12-5.77-17.12-14.39-20.33a14.76,14.76,0,0,0-11.25.3c-4.08,1.89-6,6-6.81,10.2a54.69,54.69,0,0,0-.31,18.05L1091,344c-5.62-1.39-11.14,2.27-13.38,7.37-2.68,6.1-.74,12.7,1.32,18.67l4.41-3.39a9.82,9.82,0,0,0-10,.76c-3,1.89-4.82,4.68-6.7,7.57-1.52,2.35-3.09,4.73-5.88,5.59-3,.92-6.25.45-9.29,0a3.11,3.11,0,0,0-3.69,2.1c-.39,1.42.49,3.44,2.1,3.69Z" transform="translate(-497.29 -106.74)"/><path class="cls-4" d="M1041.31,375a29.31,29.31,0,0,0,23.89-4.72,27.51,27.51,0,0,0,4.65-4.17c1.65-1.88,3.33-4.07,3.28-6.7-.05-2.39-1.29-4.59-1.71-6.92a13.27,13.27,0,0,1,.23-6,8.07,8.07,0,0,1,3.14-4.47,6,6,0,0,1,5-1.1,3,3,0,0,0,2.92-5,6.92,6.92,0,0,1-1.15-1.46c-.19-.3-.37-.6-.54-.92s-.19-.36-.28-.55c-.21-.44,0,0-.12-.26a12.42,12.42,0,0,1-.92-4.15,13.16,13.16,0,0,1,2-8.08,6.58,6.58,0,0,1,1.1-1.46c.24-.26.49-.52.75-.76s.3-.28.46-.41-.13.08.24-.2a9.37,9.37,0,0,1,3.88-1.78c.35-.09.7-.16,1.05-.22.08,0,.59-.06.12,0l.61-.05a15.54,15.54,0,0,1,2.46,0s.51.06.21,0,.3.05.37.06l1.06.22a16.22,16.22,0,0,1,2.36.76c-.12-.05-.41-.19.14.07l.69.34c.37.19.72.4,1.07.61s.78.5,1.15.79c-.3-.23.46.41.57.51.34.31.66.64,1,1,.13.15.27.3.4.46.34.43-.37-.54.18.25.23.33.45.68.66,1,.1.18.2.36.29.54s.39.85.21.41a3.09,3.09,0,0,0,3.69,2.1c1.42-.39,2.71-2.18,2.09-3.69A19,19,0,0,0,1088,309.84c-8.59,1.28-14.18,9.12-14.39,17.52a18.09,18.09,0,0,0,4.78,12.82l2.92-5a12.57,12.57,0,0,0-12.11,3.81,16.33,16.33,0,0,0-3.89,13.11A49,49,0,0,0,1067,359c.38,1.44-1.51,3.07-2.43,4a23.18,23.18,0,0,1-9.38,5.72,22.77,22.77,0,0,1-12.32.54c-3.75-.9-5.35,4.88-1.6,5.79Z" transform="translate(-497.29 -106.74)"/><path class="cls-4" d="M1026.44,356.67a69.18,69.18,0,0,0,16.23,3.4c4.5.4,9.17.37,13.37-1.54a12.61,12.61,0,0,0,7-9.73c.32-2,.44-4,.57-6a15.52,15.52,0,0,1,.75-4.71c.06-.19.13-.37.2-.55-.19.45,0,0,.05-.07a8.85,8.85,0,0,1,.6-1c-.25.34.47-.45.62-.58s.68-.43,1.05-.65c2.27-1.37,3.93-3.11,4.34-5.81s0-5.46,0-8.15,0-5.6.23-8.39c.26-3.9.49-8.77,3.27-11.69,2.47-2.6,6-2.66,9.44-1.63,9.06,2.73,14.95,12.62,16.35,21.71.24,1.6,2.26,2.49,3.69,2.1a3.07,3.07,0,0,0,2.09-3.69c-1.42-9.27-7-18.62-15.1-23.49a20.42,20.42,0,0,0-13.32-3,13.46,13.46,0,0,0-10.37,8.53c-1.92,4.62-2.08,10-2.23,14.9-.1,2.88-.07,5.77.07,8.65a20.22,20.22,0,0,1,.09,3c-.11.9-.38,1.15-1.2,1.66a12.08,12.08,0,0,0-4.68,4.43,16.43,16.43,0,0,0-1.66,5.94c-.23,1.88-.27,3.77-.44,5.65a12.41,12.41,0,0,1-.33,2.22c-.09.4-.19.81-.31,1.2-.06.2-.13.4-.2.59-.23.6.08-.12-.19.4a6.48,6.48,0,0,1-4.12,3.26,18.62,18.62,0,0,1-6.31.69,61.27,61.27,0,0,1-17.93-3.4,3,3,0,0,0-1.59,5.79Z" transform="translate(-497.29 -106.74)"/><path class="cls-4" d="M1012.19,342.25a44.84,44.84,0,0,0,23.35,7.25,22.53,22.53,0,0,0,11.32-2.69,21.72,21.72,0,0,0,7.87-8.72c4-7.33,7.65-16,6.66-24.51-.51-4.34-2.13-8.37-3-12.62a16,16,0,0,1-.33-4.78,10.9,10.9,0,0,1,1-3.6,4.84,4.84,0,0,1,2.72-2.55,8.23,8.23,0,0,1,5.48.4,33.24,33.24,0,0,1,10.79,6.91,3.08,3.08,0,0,0,4.24,0,3,3,0,0,0,0-4.25,45.14,45.14,0,0,0-10.17-7.06c-3.73-1.84-8.25-3.18-12.32-1.64-7.62,2.88-8.71,11.88-7.09,18.84.94,4,2.65,8,2.81,12.14a30.11,30.11,0,0,1-2.35,11.95,49.68,49.68,0,0,1-5.35,10.56,12.78,12.78,0,0,1-8.17,5.26,27.05,27.05,0,0,1-11.76-.65,42.42,42.42,0,0,1-12.69-5.42c-3.27-2.08-6.28,3.11-3,5.18Z" transform="translate(-497.29 -106.74)"/><path class="cls-4" d="M872.93,256.77a13.82,13.82,0,0,1-1.94-2.18,2.62,2.62,0,0,1-.57-1.92c0,.22.07-.23.2-.34-.32.28,0,.06.28,0a25.47,25.47,0,0,1,3.27,0l3.91.05a14.07,14.07,0,0,0,3.78-.15c2.78-.74,3.09-3.21,4-5.48,2.81-6.8,11.1-11,18-7,3.35,1.94,6.37-3.24,3-5.18a18.47,18.47,0,0,0-22.64,3.73,20.57,20.57,0,0,0-3.3,4.76,25.28,25.28,0,0,0-1.17,2.79c-.08.22-.48,1.05-.38,1.22l0,0a1.77,1.77,0,0,1,.78-.61l.12,0H880a5.74,5.74,0,0,0-1.71,0l-1.71,0-3.67,0c-2.39,0-4.81.08-6.63,1.86a7.2,7.2,0,0,0-1.7,6.61c.52,2.49,2.34,4.46,4.08,6.2,2.73,2.73,7-1.51,4.24-4.24Z" transform="translate(-497.29 -106.74)"/><path class="cls-4" d="M893.74,264.39a8,8,0,0,1-2-4.6,3.3,3.3,0,0,1,1.42-2.93,1.72,1.72,0,0,1,1-.3,20.9,20.9,0,0,1,2.24.17,5.91,5.91,0,0,0,4.91-1.58,5.64,5.64,0,0,0,1.31-3.25,3.06,3.06,0,0,0,.07-.54c-.12.33.51-.8.14-.33a4.42,4.42,0,0,1,3-1.5,22.56,22.56,0,0,1,5,.22,19,19,0,0,0,6.69-.23c3.75-.9,2.16-6.69-1.6-5.78-2.26.55-4.65,0-6.93-.18a14.84,14.84,0,0,0-5.89.48,10,10,0,0,0-4.71,3,7.46,7.46,0,0,0-1.53,3c-.07.27,0,1.43-.22,1.51s1-.89.88-.75h-.8c-.44,0-.87-.07-1.31-.11a8.12,8.12,0,0,0-8.11,3.86c-2.69,4-1.53,9.29,1.25,12.92a3.1,3.1,0,0,0,4.1,1.07c1.27-.73,2.07-2.81,1.08-4.1Z" transform="translate(-497.29 -106.74)"/><path class="cls-4" d="M907.53,268.3a2.39,2.39,0,0,1,.43-2.23,2.31,2.31,0,0,1,1.17-.92c-.44.18.58-.09.5-.08a6.2,6.2,0,0,1,1.12.06c1.84.18,3.55.53,5.37,0a5.88,5.88,0,0,0,4.09-4,8.69,8.69,0,0,0,.06-3c-.1-.94,0,.07.05-.57,0,.27.1-.11.11-.13a5.26,5.26,0,0,1,2.9-1.45,18.49,18.49,0,0,1,10.71.8,3,3,0,0,0,3.69-2.1,3.07,3.07,0,0,0-2.09-3.69,24.35,24.35,0,0,0-13.91-.8c-3.79.93-7.6,3.66-7.46,7.94a6,6,0,0,0,.15,1.41c0-.13.26-.27.27-.34,0,.18-.52.24-.81.28.24,0,.18-.05-.19,0s-.61,0-.91-.06c-2.25-.23-4.26-.52-6.38.45a8.69,8.69,0,0,0-4.66,10.06c1.06,3.7,6.85,2.13,5.79-1.6Z" transform="translate(-497.29 -106.74)"/><path class="cls-4" d="M923.4,274.29a5.9,5.9,0,0,1,.23-.92c-.15.41.25-.41.32-.51s.11-.17,0,0c.1-.12.21-.23.32-.34s.22-.22.34-.32l.15-.11A7.49,7.49,0,0,1,928,270.8a6.76,6.76,0,0,1,1.51-.17,12.5,12.5,0,0,0,3.05-.32c1.94-.57,3-2,4.45-3.28a11.66,11.66,0,0,1,6.68-2.54,11.14,11.14,0,0,1,7.26,2.06,3,3,0,0,0,4.1-1.08,3.06,3.06,0,0,0-1.07-4.1,17.63,17.63,0,0,0-20.07.51,19.64,19.64,0,0,0-2.17,1.91c-.57.59-.59.74-1.4.82a25.07,25.07,0,0,0-5.24.74c-3.48,1.1-6.78,3.57-7.49,7.34a3.09,3.09,0,0,0,2.09,3.7,3,3,0,0,0,3.69-2.1Z" transform="translate(-497.29 -106.74)"/><path class="cls-4" d="M940.79,278.87a10.18,10.18,0,0,1-1.32-1.87c-.07-.11-.36-.78-.4-.79s-.75,1.35-.71,1.4,3.32-1.05,3.68-1.09c3.22-.42,6.07.76,9.12,1.57s6.34,1,9.33-.55c2.65-1.35,4.73-4.17,4.44-7.23a3.08,3.08,0,0,0-3-3,3,3,0,0,0-3,3c0,.05.06,1,.07.45,0,.51.09,0-.13.42-.3.59.18-.1-.29.39,0,0-.64.54-.39.37a4.36,4.36,0,0,1-3.05.82,20.23,20.23,0,0,1-4.47-1.07,28.74,28.74,0,0,0-5.43-1.18,16.68,16.68,0,0,0-10.17,2.08c-4.16,2.69-.92,7.84,1.47,10.52a3,3,0,0,0,4.25-4.24Z" transform="translate(-497.29 -106.74)"/><path class="cls-4" d="M959.46,291.9c-.43-.19,0,.1.18.27s.24.72.17.25c0,.23,0,.48,0,.11,0-.06.09-.74,0-.29s.1-.32.1-.33c.05-.17.11-.33.16-.49-.16.55,0,.05.06-.1a6,6,0,0,1,.31-.55c0-.06.43-.64.21-.32s.12-.15.17-.2c.28-.32.62-.59.92-.9s-.53.35.11-.09l.44-.3c.37-.24.76-.44,1.15-.65.23-.12.27-.13,0,0l.62-.23a11.74,11.74,0,0,1,3.89-.65,29.71,29.71,0,0,1,3.27.15c1.24.12,1.79.21,3,.38a3.08,3.08,0,0,0,3.69-2.09c.32-1.43-.44-3.45-2.1-3.69-5.52-.81-11.57-1.57-16.53,1.62a12.2,12.2,0,0,0-4.88,5.81c-1,2.49-.77,6.25,2,7.49a3.07,3.07,0,0,0,4.1-1.07c.69-1.31.46-3.43-1.07-4.11Z" transform="translate(-497.29 -106.74)"/><path class="cls-4" d="M909.14,232.36c5.78-1.14,13.07-2.54,17.84,1.5,2.29,1.94,2.92,5.86,6.72,5.67,3.21-.15,5.22-3.56,7.51-5.2,8.93-6.42,21.33-5.8,29,2.2a22.77,22.77,0,0,1,6.41,16c-.06,3.86,5.94,3.86,6,0,.2-12.8-9-25.19-21.68-27.94a29.57,29.57,0,0,0-18.69,2.17,26.7,26.7,0,0,0-7.49,5.18,21.6,21.6,0,0,0-1.59,1.59s1.37.26.65,0l.8.58a5.24,5.24,0,0,1-.32-.57,14.12,14.12,0,0,0-3.09-4c-6.71-5.82-15.64-4.63-23.69-3.05a3,3,0,0,0-2.09,3.69,3.06,3.06,0,0,0,3.69,2.1Z" transform="translate(-497.29 -106.74)"/><path class="cls-4" d="M944.32,247a6.09,6.09,0,0,1,2.29-3.22,11.14,11.14,0,0,1,4.26-1.87,15.28,15.28,0,0,1,9.56,1,12.46,12.46,0,0,1,6.53,6.6,11.26,11.26,0,0,1-.15,9.19,3.08,3.08,0,0,0,1.07,4.11,3,3,0,0,0,4.11-1.08,17.82,17.82,0,0,0-3.63-20.62,20.91,20.91,0,0,0-21-4.39c-4.07,1.53-7.6,4.38-8.83,8.7-1.06,3.72,4.73,5.31,5.79,1.6Z" transform="translate(-497.29 -106.74)"/><path class="cls-4" d="M891.35,218.43a33,33,0,0,1,33.82,5.3,3,3,0,0,0,5-1.32c1.69-4.32,6.29-7,10.72-8.12,5.76-1.41,12.25-.8,18,.23,5.49,1,10.43,3,14.43,7a35.89,35.89,0,0,1,8.13,12.94c2.5,6.6,3.68,13.6,4.86,20.54a3,3,0,0,0,3.69,2.09,3.07,3.07,0,0,0,2.09-3.69c-2.16-12.76-4.79-26.29-14.26-35.85a31.57,31.57,0,0,0-16.9-8.72c-6.73-1.27-14-1.92-20.78-.51-7,1.44-13.17,5.77-15.8,12.5l5-1.32a39.28,39.28,0,0,0-41.09-6.24c-1.49.65-1.82,2.83-1.08,4.11a3.09,3.09,0,0,0,4.11,1.07Z" transform="translate(-497.29 -106.74)"/><path class="cls-4" d="M1015.67,251.63a74,74,0,0,0-4.89-9.6,13.79,13.79,0,0,0-3.6-4.48,4.91,4.91,0,0,0-6.22.5,9.53,9.53,0,0,0-2.17,4.53,25.59,25.59,0,0,0-.81,4.85,9.76,9.76,0,0,0,3.93,8.92c3.21,2.22,7.56,1.64,11.06.56a3,3,0,1,0-1.59-5.79c-.55.17-1.1.32-1.66.45-.32.08-.64.14-1,.2-.11,0-.59.1-.14,0s-.15,0-.25,0a16.07,16.07,0,0,1-1.7,0c-.53,0,.09,0,.18,0a2.79,2.79,0,0,0-.4-.07c-.15,0-1-.16-1-.28s.57.28.16.06l-.35-.2a2,2,0,0,1-.35-.22c0,.09.44.38.12.08,0-.05-.58-.52-.55-.57s.36.55.12.15c-.09-.17-.2-.33-.29-.5s-.15-.33-.17-.34c.15,0,.22.6.1.19-.08-.25-.15-.49-.21-.75a3.48,3.48,0,0,0-.07-.38c.08,0,.06.68,0,.21s0-.67,0-1c0-.54.15-1.13.1-1.66.05.55-.06.43,0,.17s.05-.28.07-.42c.06-.35.13-.7.21-1,.12-.55.25-1.09.4-1.63.07-.25.14-.5.22-.75l.12-.36c.19-.61-.33.55,0,0,.14-.23.58-.77,0-.15.16-.17.36-.24-.21.12.19-.11.41-.16-.25.08.22-.08.42,0-.22,0-.08,0-.72-.14-.23,0-.1,0-.59-.32-.18,0-.29-.2-.33-.28,0,0,.09.09.34.27.37.4,0,0-.4-.57-.08-.09l.53.79c.39.63.78,1.27,1.16,1.91a74.14,74.14,0,0,1,4.56,9c.61,1.46,2.86,1.88,4.1,1.08a3.09,3.09,0,0,0,1.08-4.1Z" transform="translate(-497.29 -106.74)"/><path class="cls-4" d="M1001.37,265.39a11.08,11.08,0,0,1,2.94,4.06c.08.2.16.8.32.88,0,.26.14.11.31-.45l-.22.22c.16-.17.09-.15-.21,0,.19-.09.11-.08-.24.06s-.65.17-1,.24c-4.3,1-8.63,1.83-12.94,2.74-2.9.61-2.82,5.12,0,5.78a3.86,3.86,0,0,1,2.91,2.47,3.63,3.63,0,0,1,0,3.09,4.83,4.83,0,0,1-2.87,2.42c-1.64.49-2.71-.15-4.81-.18a5.43,5.43,0,0,0-5.47,4,7.49,7.49,0,0,1-2.35,3.89c-2.92,2.59-7.38,3-11.21,3.26a3.07,3.07,0,0,0-3,3,3,3,0,0,0,3,3c4.27-.31,8.64-.77,12.45-2.86a14.54,14.54,0,0,0,4.37-3.62,12.35,12.35,0,0,0,1.51-2.28,20.86,20.86,0,0,0,1-2.79s-.73.62-.79.41c0,0,.92,0,1,0,.41,0,1.79.31,2.56.35a10.6,10.6,0,0,0,5.48-1.31,10.11,10.11,0,0,0,5.44-9.37,10.3,10.3,0,0,0-7.61-9.28V279l8.38-1.77c2.44-.51,5.31-.74,7.5-2,5.7-3.33,1.31-10.83-2.21-14a3.08,3.08,0,0,0-4.25,0,3,3,0,0,0,0,4.24Z" transform="translate(-497.29 -106.74)"/><path class="cls-4" d="M1013.36,264.18a22.17,22.17,0,0,1,4,4.76,5.12,5.12,0,0,1,.41,4.72c-1.86,4.19-7,5.37-11,6.43-1.72.45-2.94,2.82-1.79,4.4a8.82,8.82,0,0,1-6.53,14.38,3,3,0,0,0-2.59,4.52,7.06,7.06,0,0,0,2.73,2.77c.42.26.87.49,1.31.72.22.12.44.24.65.37,0,0,.75.54.34.21.17.13.23.35.22.08a1.33,1.33,0,0,1-.23.88,5.33,5.33,0,0,1-2.13,2c-3.81,2.28-9.28,1.6-13.65.93a3.09,3.09,0,0,0-3.69,2.09c-.39,1.42.49,3.44,2.1,3.69,6.25,1,13.68,1.86,19.15-2.11,3-2.16,5.54-5.89,4-9.67a7.31,7.31,0,0,0-3.31-3.46c-.52-.3-1.06-.55-1.58-.86-.08-.05-.74-.51-.33-.2-.24-.25-.27-.26-.1,0a2.91,2.91,0,0,1-.27-.49l-2.59,4.51a14.79,14.79,0,0,0,11.71-23.4l-1.79,4.4c6-1.58,12.42-3.86,15-10.06s-1.48-11.69-5.77-15.87c-2.77-2.7-7,1.54-4.24,4.24Z" transform="translate(-497.29 -106.74)"/><path class="cls-4" d="M1023.57,268.61a7.53,7.53,0,0,1,4.36,3.52,11.62,11.62,0,0,1,1.84,6.9,6.61,6.61,0,0,1-2.92,4.68,31,31,0,0,1-6.25,3.4c-2.51,1.11-1.52,4.78.72,5.48,0,0,.72.28.47.16s.35.22.41.25c.72.43-.16-.18.19.13l.52.49c.58.6-.23-.4.25.3.1.16.21.32.3.49a7.22,7.22,0,0,1,.41.78c-.13-.3,0-.05,0,.11a10.59,10.59,0,0,1,.36,1.45c-.09-.55,0,.37,0,.41q0,.3,0,.6a6.7,6.7,0,0,1,0,.9c0-.33,0-.08,0,.1s-.15.58-.23.87c-.15.48,0,0-.09.26-1.8,4-6.59,5.3-10.72,5.16-3.39-.12-4.06,5-.8,5.89a5.68,5.68,0,0,1,3.83,3.52,15.69,15.69,0,0,1,.46,1.55c0,.26.11.51.14.77-.07-.53,0,.33,0,.44q0,.46,0,.93s-.09,1,0,.43a9.32,9.32,0,0,1-.46,1.8,10.36,10.36,0,0,1-4.43,4.75,14.82,14.82,0,0,1-7.35,1.88c-3.85,0-3.86,6,0,6,7.35-.07,15.29-3.93,17.67-11.33,2.09-6.53-1.39-14.72-8.28-16.52l-.79,5.89c6.62.22,14-2.8,16.44-9.4,2.13-5.75-.64-13-6.67-14.85l.72,5.49c5.89-2.62,12-6.52,12.16-13.72.11-6.64-4-13.86-10.62-15.74-3.72-1.06-5.31,4.73-1.6,5.78Z" transform="translate(-497.29 -106.74)"/><path class="cls-4" d="M1029.35,273.73a51,51,0,0,1,8.19,4.83,13.62,13.62,0,0,1,5.12,6.8c1.38,4.88-2.09,10.47-7.27,11.58a3,3,0,0,0-2.1,3.69c1,4.06,2.07,8.69.51,12.43a6.76,6.76,0,0,1-2.93,3.47,6.36,6.36,0,0,0-2.67,2.31A5.22,5.22,0,0,0,1028,323a24.17,24.17,0,0,1,1.67,6.25,12.84,12.84,0,0,1-.78,5.59,9.37,9.37,0,0,1-2.73,3.61,7,7,0,0,1-4.4,1.6c-3.86,0-3.87,6,0,6,8-.07,13.55-7.26,13.93-14.83a21.16,21.16,0,0,0-.64-6,21.91,21.91,0,0,0-.86-2.75,6.07,6.07,0,0,0-.48-1.23c-.13,0-.66,1-.69,1s.54-.32.6-.35a13.53,13.53,0,0,0,6.37-8.42c1.3-4.78.23-9.73-.88-14.43l-2.1,3.69c7.93-1.68,13.16-10.12,11.7-18-1.51-8.13-9.55-12.81-16.31-16.21a3.07,3.07,0,0,0-4.1,1.07,3,3,0,0,0,1.08,4.11Z" transform="translate(-497.29 -106.74)"/><path class="cls-4" d="M986.91,260q-2.34-.13-4.68-.21c-1.52,0-3.06-.12-4.58,0a5.58,5.58,0,0,0-4.85,2.77,8,8,0,0,0-.79,4.35c.2,3.13.71,6.68,3.16,8.91a7,7,0,0,0,4.86,2,6.65,6.65,0,0,0,4.58-2.06,8.66,8.66,0,0,0,2.26-5.09,17.77,17.77,0,0,0-.62-5.8,3,3,0,0,0-3.69-2.1,3.07,3.07,0,0,0-2.1,3.69c.14.6.27,1.21.38,1.81,0,.06.08.46.07.46s-.07-.77,0-.11c0,.34.05.68.05,1,0,0-.06.79-.05.79s.12-.6,0-.12c0,.11,0,.22-.08.33s-.07.21-.1.32c-.13.46.07-.19.11-.24-.14.2-.23.45-.37.67-.37.58.43-.45,0,.06-.08.08-.67.6-.24.26s-.22.1-.32.16.35-.14.35-.14a2.62,2.62,0,0,0-.48.13c.09,0,.78,0,.3,0a1.47,1.47,0,0,0-.36,0c.09,0,.73.18.28,0a3.09,3.09,0,0,0-.34-.1s.58.29.31.14l-.31-.17-.31-.19c-.3-.19.49.44.12.07-.09-.09-.42-.52-.51-.53.22,0,.35.52.14.17-.06-.11-.13-.2-.19-.31l-.18-.34c-.18-.34-.13,0,.05.14-.15-.12-.24-.71-.29-.89s-.12-.48-.16-.72a2.64,2.64,0,0,1-.15-.83c-.08.44.06.48,0,.17,0-.14,0-.28,0-.42l-.09-.86a11.76,11.76,0,0,1,0-1.33c0-.1,0-.21,0-.32,0-.32-.06.41,0,.39a3.19,3.19,0,0,0,.2-.75s-.32.72-.11.31.18,0-.21.24a2.07,2.07,0,0,0,.21-.21s-.55.41-.3.25-.57.13-.19.08c.18,0,.48,0,.09,0s0,0,.1,0h.5c2.89,0,5.78.09,8.66.26a3,3,0,0,0,3-3,3.07,3.07,0,0,0-3-3Z" transform="translate(-497.29 -106.74)"/><path class="cls-4" d="M1058.13,275a15.67,15.67,0,0,0-3.6-2.11c-.54-.24-1.09-.48-1.62-.76-.23-.12-.46-.25-.69-.4s-.21-.15-.32-.21l.3.23-.24-.2c-.11-.1-.22-.22-.33-.33s-.12-.34.17.25a3.62,3.62,0,0,0-.4-.66l.18.44a2.29,2.29,0,0,1-.09-.28,3,3,0,0,1-.11-.43c-.07-.27.11-.27,0,.37,0-.19,0-.4,0-.59s0-.2,0-.3c0,.82-.08.52,0,.21s.18-.48.22-.73c-.11.68-.21.48-.05.16,0-.09.09-.18.14-.27s.16-.27.25-.4l.18-.26c-.3.38-.38.48-.23.3s.38-.42.59-.62a2.31,2.31,0,0,0,.24-.2c-.44.53-.39.29-.11.1s.49-.23.68-.38l-.43.18.29-.11.44-.14.46-.1c.56-.13-.65,0-.26,0s.57,0,.86,0,1.11.21.13,0c.31.08.62.11.92.2s.49.18.74.25c-.79-.21-.4-.17-.15-.05l.41.23.26.16c.23.15.46.47-.11-.1.22.21.47.4.68.62s.17.2.26.29c.26.27-.44-.65-.15-.17l.39.67c.28.49-.24-.72-.07-.17,0,.14.1.28.14.42s0,.19.07.29c.16.77,0-.59,0-.07a8.81,8.81,0,0,1,0,.89c0,.1,0,.21,0,.3.08-.55.09-.67,0-.36a1.59,1.59,0,0,1-.06.3,7,7,0,0,1-.25.86c-.17.54.34-.68.08-.17-.07.13-.13.27-.2.4s-.15.25-.23.38-.45.46.12-.13c-.2.21-.38.44-.6.64s-.55.34.16-.09c-.12.07-.24.17-.36.25s-.26.14-.38.21c-.44.26.76-.27,0,0a3,3,0,0,0,1.6,5.79,9.23,9.23,0,0,0,6-8.14,8.88,8.88,0,0,0-4.84-8.47c-3.1-1.56-7.16-1.72-10,.41s-4.9,6.08-3.47,9.63a8.56,8.56,0,0,0,4.25,4.44c.7.36,1.44.65,2.16,1,.37.17.74.35,1.09.55.17.09.33.19.49.29s.78.58.05,0a3.27,3.27,0,0,0,2.12.88,3.08,3.08,0,0,0,2.12-.88c1-1.08,1.32-3.2,0-4.24Z" transform="translate(-497.29 -106.74)"/><path class="cls-4" d="M846.12,215.84l-.34-.19-.17-.1c-.21-.15-.21-.14,0,0l.15.12-.22-.18-.33-.33a2.44,2.44,0,0,0-.25-.28c.06,0,.41.61.14.16-.16-.27-.31-.54-.46-.82s.16.12.08.2-.11-.31-.12-.36a8.59,8.59,0,0,1-.21-.84c-.16-.68,0,.63,0-.25a6.46,6.46,0,0,1,0-.88,2.9,2.9,0,0,0,0-.48s-.15.76,0,.22c.06-.26.11-.51.18-.76s.07-.25.12-.38l.06-.18c.09-.24.09-.24,0,0,.06.24-.09.19,0-.08s.15-.28.24-.42.2-.27.26-.41c.14-.34-.4.4-.12.15s.4-.42.59-.62-.15.17-.15.1.27-.2.32-.23a3.16,3.16,0,0,1,.94-.5c-.75.13,0,0,.28,0s.34-.08.51-.12.55,0,.12,0,.16,0,.23,0h.85l.21,0c.34,0,.28,0-.16,0,.4-.12,1.28.29,1.67.43a1.63,1.63,0,0,1,.4.15c-.59-.37-.2-.09,0,0s.64.34.95.54c.12.07.23.17.36.24.37.21-.52-.48,0,0,.21.2.43.39.63.59s.39.43.57.65c-.49-.58.14.25.26.46s.13.26.21.39c.34.59-.12-.4,0,0s.21.6.3.91a9.75,9.75,0,0,1,.21,1c0-.11-.05-.65,0-.09l0,.72c0,.4,0,.79-.06,1.19,0-.11.11-.64,0-.08,0,.23-.08.47-.14.7a12,12,0,0,1-.34,1.17c0,.15-.11.3-.17.45.18-.49,0-.07-.09.17s-.33.65-.52,1l-.33.52c0,.06-.44.61-.19.29s-.23.25-.23.26-.27.3-.41.44c-.31.32-.64.62-1,.91a3,3,0,0,0,0,4.24,3.09,3.09,0,0,0,4.24,0,15,15,0,0,0,5.2-10.51,12,12,0,0,0-4.89-10.4,11.78,11.78,0,0,0-10.4-1.88,9.8,9.8,0,0,0-6.59,7.74c-.65,4,.75,8.48,4.54,10.49a3,3,0,0,0,3-5.18Z" transform="translate(-497.29 -106.74)"/></g><g id="Layer_4" data-name="Layer 4"><rect class="cls-5" x="239.99" y="578.26" width="400.57" height="152.19"/></g></svg>